/* XPM */
static char * atlc_xpm[] = {
"48 48 11 1",
" 	c None",
".	c #00FF00",
"+	c #38C700",
"@	c #55AA00",
"#	c #E21D00",
"$	c #FF0000",
"%	c #AA5500",
"&	c #8D7200",
"*	c #718E00",
"=	c #C63900",
"-	c #1CE300",
"................................................",
"................................................",
"................................................",
"................................................",
"...........................+@@@@+...............",
"...........................#$$$$%...............",
"..............................@$@...............",
".................+%+..........&$+...............",
".................*$@..........%$................",
".....%#$$$&....%%#$%%%%+......$=.......*=$$$#+..",
"....@=@@@#$@..-%%$#%%%%-.....-$%......%$=@@@%+..",
".........&$@.....$%..........@$@.....&$*........",
".........%$.....@$*..........&$+....-$=.........",
"....-&$$$$#.....*$@..........%$.....*$@.........",
"...@$%+..$%.....%$...........$=.....%$@.........",
"..-$=...@$*.....=$..........-$%.....%$@.........",
"..@$%..-%$@.....$%..........@$@.....&$%.........",
"..-$$%%#=$%-....#$&@&%......&$+.....-#$=*@%#....",
"...+%%%-.%%+....-%=#%*......*%.......-&=$=%*....",
"................................................",
"................................................",
"................................................",
"................................................",
"................................................",
"................................................",
"................................................",
"................................................",
"................................................",
"....................@@@@@@@@-...................",
"...................@$$$$$$$$@...................",
".........................+$%....................",
"........................-##-....................",
".......................-##-....+=$$$&...........",
".......................=$-....@$=@@%$&..........",
"......................%$@....+$=....$$..........",
".....................%$@.....=$+....#$..........",
"....................*$*......$#.....$$..........",
"...................@$%......+$%....-$%..........",
"..................@$%.......+$%....&$@..........",
".................-##.........$#...-$#...........",
".................#$=%%%%%%-..&$=@&$#-...........",
".................%%%%%%%%%....*%#%*.............",
"................................................",
"................................................",
"................................................",
"................................................",
"................................................",
"................................................"};
