/* XPM */
static char * thumbnail_xpm[] = {
"24 24 166 2",
"  	c None",
". 	c #444444",
"+ 	c #595959",
"@ 	c #F4F4DB",
"# 	c #EBEBD3",
"$ 	c #ACA994",
"% 	c #EEEED5",
"& 	c #F2F2D9",
"* 	c #9F9C89",
"= 	c #AAA793",
"- 	c #F5F5DC",
"; 	c #F4F4DC",
"> 	c #B1AD99",
", 	c #9E9986",
"' 	c #D8D6C0",
") 	c #DCDBC3",
"! 	c #989481",
"~ 	c #625C4C",
"{ 	c #DCDBC4",
"] 	c #D4D4C0",
"^ 	c #8C8C81",
"/ 	c #A8A79F",
"( 	c #B7B4AD",
"_ 	c #AFADA6",
": 	c #6C6656",
"< 	c #4F493B",
"[ 	c #777364",
"} 	c #909084",
"| 	c #535352",
"1 	c #7C776D",
"2 	c #979388",
"3 	c #95938C",
"4 	c #5B5648",
"5 	c #4F4B3F",
"6 	c #DBDBC4",
"7 	c #D7D6C1",
"8 	c #6B6A63",
"9 	c #5A5648",
"0 	c #615B4B",
"a 	c #524E41",
"b 	c #49463B",
"c 	c #A3A18E",
"d 	c #F2F2DA",
"e 	c #E5E5CD",
"f 	c #908F7F",
"g 	c #858476",
"h 	c #989786",
"i 	c #ADAC99",
"j 	c #F1F1D8",
"k 	c #F3F3DA",
"l 	c #000000",
"m 	c #787566",
"n 	c #625C4B",
"o 	c #928F7D",
"p 	c #8C836E",
"q 	c #DEDEC7",
"r 	c #8A8878",
"s 	c #68614F",
"t 	c #595344",
"u 	c #928D79",
"v 	c #7A7260",
"w 	c #A2A190",
"x 	c #655E4D",
"y 	c #645D4D",
"z 	c #D2D2BC",
"A 	c #807C6B",
"B 	c #877E68",
"C 	c #706957",
"D 	c #7B786A",
"E 	c #DDDDC7",
"F 	c #5E5847",
"G 	c #6E6754",
"H 	c #665F4E",
"I 	c #5A5445",
"J 	c #9B9A90",
"K 	c #9B9483",
"L 	c #8E8674",
"M 	c #AFABA0",
"N 	c #9F998B",
"O 	c #7C7562",
"P 	c #6C6552",
"Q 	c #605949",
"R 	c #5C5546",
"S 	c #595243",
"T 	c #403C31",
"U 	c #D1D1BC",
"V 	c #2B2B2B",
"W 	c #76766A",
"X 	c #A3A298",
"Y 	c #9D9D9D",
"Z 	c #E1E0DE",
"` 	c #CCC9C5",
" .	c #CACACA",
"..	c #E3E3E1",
"+.	c #9D988B",
"@.	c #696251",
"#.	c #575142",
"$.	c #484336",
"%.	c #B2B19F",
"&.	c #4E4E4E",
"*.	c #8C8C8C",
"=.	c #434240",
"-.	c #676662",
";.	c #8B8A8A",
">.	c #DAD9D6",
",.	c #AAAAA9",
"'.	c #5D5D5D",
").	c #B9B9B9",
"!.	c #98948B",
"~.	c #645E4E",
"{.	c #504A3C",
"].	c #3C382C",
"^.	c #939282",
"/.	c #313131",
"(.	c #555555",
"_.	c #424242",
":.	c #625F57",
"<.	c #8F897C",
"[.	c #8C8572",
"}.	c #A9A59D",
"|.	c #AAAAAA",
"1.	c #C6C6C4",
"2.	c #858075",
"3.	c #5B5546",
"4.	c #494437",
"5.	c #3E3A2E",
"6.	c #1E1E1E",
"7.	c #404040",
"8.	c #575757",
"9.	c #66635C",
"0.	c #716B58",
"a.	c #7C7561",
"b.	c #7E796B",
"c.	c #736D5E",
"d.	c #5D5748",
"e.	c #433F32",
"f.	c #3A362B",
"g.	c #747265",
"h.	c #545454",
"i.	c #6E6E6D",
"j.	c #626057",
"k.	c #696250",
"l.	c #6C6553",
"m.	c #5B5545",
"n.	c #454237",
"o.	c #47433A",
"p.	c #5F5C4F",
"q.	c #B5B4A2",
"r.	c #625E51",
"s.	c #4E493C",
"t.	c #4B4739",
"u.	c #524D3E",
"v.	c #504B3D",
"w.	c #36332A",
"x.	c #545149",
"y.	c #514E44",
"z.	c #49473B",
"A.	c #6D6C60",
"B.	c #1B1914",
"C.	c #14130F",
"D.	c #1E1C18",
"E.	c #38352F",
"F.	c #555248",
"G.	c #57544A",
"H.	c #3A372D",
"I.	c #E9E9D1",
"                                                ",
"                                                ",
"      . . . . . . . . . . . +                   ",
"      . @ # $ % @ @ & * = . + +                 ",
"      . - ; > , ' ) ! ~ { .     + +             ",
"      . ] ^ / ( _ : < [ # .         + +         ",
"    + . } | 1 2 3 4 5 6 - .             + +     ",
"    + . 7 8 9 0 a b c d - .                 +   ",
"    + . @ e f g h i j k - . l l l l l l l l l   ",
"    l . . . . . . . . . . . - - - - - m n - l   ",
"    l + - - - o p q - - - + - - - - r s t - l   ",
"    l + - - - - u v - - - + - - - w x y z - l   ",
"    l + - - - - A B C D - - + E F G H I z - l   ",
"    l + - - - - J K L M N O P + Q R S T U - l   ",
"    l + U V W X Y Z `  ...+.@.#.+ $.$.%.- - l   ",
"    l + &.*.=.-.;.>.,.'.).!.~.{.+ ].^.- - - l   ",
"    l + /.(._.:.<.[.}.|.1.2.3.4.5.+ - - - - l   ",
"    l + 6.7.8.9.0.a.O b.c.d.< e.f.g.+ - - - l   ",
"    l + z h.i.j.3.k.l.H m.n.o.5.p.- - + - - l   ",
"    + - - q.r.s.t.u.v.T w.x.y.z.- - - + - - l   ",
"    + - - - - A.B.C.D.E.F.G.H.I.- - - - + - l   ",
"    + - - - - - - - - - - - - - - - - - - + l   ",
"    + l l l l l l l l l l l l l l l l l l l +   ",
"                                                "};
