/* XPM */
static char * CircInRect_xpm[] = {
"64 64 9 1",
" 	c None",
".	c #FFFFFF",
"+	c #00FF00",
"@	c #FFE2E2",
"#	c #FF7777",
"$	c #FF2C2C",
"%	c #FF0505",
"&	c #FF9B9B",
"*	c #FF0000",
"................................................................",
"................................................................",
"................................................................",
"................................................................",
"................................................................",
"................................................................",
"................................................................",
"................................................................",
"................................................................",
"................................................................",
"...++++++++++++++++++++++++++++++++++++++++++++++++++++++++++...",
"...++++++++++++++++++++++++++++++++++++++++++++++++++++++++++...",
"...++++++++++++++++++++++++++++++++++++++++++++++++++++++++++...",
"...++++++++++++++++++++++++++++++++++++++++++++++++++++++++++...",
"...++++..................................................++++...",
"...++++..................................................++++...",
"...++++..................................................++++...",
"...++++..................................................++++...",
"...++++..................................................++++...",
"...++++..................................................++++...",
"...++++..................................................++++...",
"...++++..................................................++++...",
"...++++..................................................++++...",
"...++++..................................................++++...",
"...++++..................................................++++...",
"...++++...................@#$%%$#@.......................++++...",
"...++++..................&%******%&......................++++...",
"...++++.................&**********&.....................++++...",
"...++++................@%**********%@....................++++...",
"...++++................#************#....................++++...",
"...++++................$************$....................++++...",
"...++++................%************%....................++++...",
"...++++................%************%....................++++...",
"...++++................$************$....................++++...",
"...++++................#************#....................++++...",
"...++++................@%**********%@....................++++...",
"...++++.................&**********&.....................++++...",
"...++++..................&%******%&......................++++...",
"...++++...................@#$%%$#@.......................++++...",
"...++++..................................................++++...",
"...++++..................................................++++...",
"...++++..................................................++++...",
"...++++..................................................++++...",
"...++++..................................................++++...",
"...++++..................................................++++...",
"...++++..................................................++++...",
"...++++..................................................++++...",
"...++++..................................................++++...",
"...++++..................................................++++...",
"...++++++++++++++++++++++++++++++++++++++++++++++++++++++++++...",
"...++++++++++++++++++++++++++++++++++++++++++++++++++++++++++...",
"...++++++++++++++++++++++++++++++++++++++++++++++++++++++++++...",
"...++++++++++++++++++++++++++++++++++++++++++++++++++++++++++...",
"...++++++++++++++++++++++++++++++++++++++++++++++++++++++++++...",
"................................................................",
"................................................................",
"................................................................",
"................................................................",
"................................................................",
"................................................................",
"................................................................",
"................................................................",
"................................................................",
"................................................................"};
