/* XPM */
static char * coax_xpm[] = {
"48 48 242 2",
"  	c None",
". 	c #FFFFFF",
"+ 	c #F9FFF9",
"@ 	c #ECFFEC",
"# 	c #DFFFDF",
"$ 	c #D4FFD4",
"% 	c #CDFFCD",
"& 	c #CAFFCA",
"* 	c #C9FFC9",
"= 	c #CCFFCC",
"- 	c #D2FFD2",
"; 	c #DBFFDB",
"> 	c #E8FFE8",
", 	c #F6FFF6",
"' 	c #F7FFF7",
") 	c #E6FFE6",
"! 	c #D6FFD6",
"~ 	c #B7FFB7",
"{ 	c #8FFF8F",
"] 	c #6BFF6B",
"^ 	c #4DFF4D",
"/ 	c #3AFF3A",
"( 	c #30FF30",
"_ 	c #2FFF2F",
": 	c #37FF37",
"< 	c #48FF48",
"[ 	c #62FF62",
"} 	c #86FF86",
"| 	c #AEFFAE",
"1 	c #CEFFCE",
"2 	c #E3FFE3",
"3 	c #F4FFF4",
"4 	c #FEFFFE",
"5 	c #EDFFED",
"6 	c #ACFFAC",
"7 	c #67FF67",
"8 	c #2EFF2E",
"9 	c #0BFF0B",
"0 	c #00FF00",
"a 	c #03FF03",
"b 	c #23FF23",
"c 	c #5BFF5B",
"d 	c #9AFF9A",
"e 	c #E0FFE0",
"f 	c #FCFFFC",
"g 	c #9CFF9C",
"h 	c #47FF47",
"i 	c #1EFF1E",
"j 	c #0CFF0C",
"k 	c #01FF01",
"l 	c #0AFF0A",
"m 	c #18FF18",
"n 	c #87FF87",
"o 	c #D5FFD5",
"p 	c #FDFFFD",
"q 	c #BBFFBB",
"r 	c #06FF06",
"s 	c #0FFF0F",
"t 	c #35FF35",
"u 	c #4FFF4F",
"v 	c #5FFF5F",
"w 	c #66FF66",
"x 	c #5CFF5C",
"y 	c #49FF49",
"z 	c #2CFF2C",
"A 	c #05FF05",
"B 	c #1DFF1D",
"C 	c #A5FFA5",
"D 	c #F8FFF8",
"E 	c #98FF98",
"F 	c #46FF46",
"G 	c #24FF24",
"H 	c #79FF79",
"I 	c #B3FFB3",
"J 	c #C6FFC6",
"K 	c #D8FFD8",
"L 	c #D7FFD7",
"M 	c #D0FFD0",
"N 	c #C2FFC2",
"O 	c #ADFFAD",
"P 	c #93FF93",
"Q 	c #6EFF6E",
"R 	c #43FF43",
"S 	c #1CFF1C",
"T 	c #34FF34",
"U 	c #D1FFD1",
"V 	c #1BFF1B",
"W 	c #04FF04",
"X 	c #1FFF1F",
"Y 	c #55FF55",
"Z 	c #BFFFBF",
"` 	c #81FF81",
" .	c #44FF44",
"..	c #16FF16",
"+.	c #64FF64",
"@.	c #FAFFFA",
"#.	c #85FF85",
"$.	c #0EFF0E",
"%.	c #DDFFDD",
"&.	c #CFFFCF",
"*.	c #73FF73",
"=.	c #2AFF2A",
"-.	c #5AFF5A",
";.	c #11FF11",
">.	c #C7FFC7",
",.	c #B2FFB2",
"'.	c #65FF65",
").	c #19FF19",
"!.	c #80FF80",
"~.	c #E4FFE4",
"{.	c #C8FFC8",
"].	c #68FF68",
"^.	c #10FF10",
"/.	c #E2FFE2",
"(.	c #13FF13",
"_.	c #70FF70",
":.	c #DAFFDA",
"<.	c #4EFF4E",
"[.	c #3FFF3F",
"}.	c #12FF12",
"|.	c #75FF75",
"1.	c #21FF21",
"2.	c #A9FFA9",
"3.	c #15FF15",
"4.	c #39FF39",
"5.	c #C3FFC3",
"6.	c #56FF56",
"7.	c #F3FFF3",
"8.	c #71FF71",
"9.	c #1AFF1A",
"0.	c #E1FFE1",
"a.	c #B1FFB1",
"b.	c #84FF84",
"c.	c #FFF8F8",
"d.	c #FFCACA",
"e.	c #FF9999",
"f.	c #FF8282",
"g.	c #FF8B8B",
"h.	c #FFB0B0",
"i.	c #FFE3E3",
"j.	c #7DFF7D",
"k.	c #EEFFEE",
"l.	c #B0FFB0",
"m.	c #FFF5F5",
"n.	c #FFBCBC",
"o.	c #FF5757",
"p.	c #FF1010",
"q.	c #FF0000",
"r.	c #FF3030",
"s.	c #FF8686",
"t.	c #FFE4E4",
"u.	c #FFFDFD",
"v.	c #02FF02",
"w.	c #51FF51",
"x.	c #53FF53",
"y.	c #FFCCCC",
"z.	c #FF4F4F",
"A.	c #FF1818",
"B.	c #FF9292",
"C.	c #FFF0F0",
"D.	c #F1FFF1",
"E.	c #FFECEC",
"F.	c #FF8D8D",
"G.	c #FF0B0B",
"H.	c #FF0404",
"I.	c #FFD4D4",
"J.	c #CBFFCB",
"K.	c #76FF76",
"L.	c #FFDDDD",
"M.	c #FF7070",
"N.	c #FF0909",
"O.	c #FFC6C6",
"P.	c #FFFEFE",
"Q.	c #07FF07",
"R.	c #C5FFC5",
"S.	c #7EFF7E",
"T.	c #FFDCDC",
"U.	c #FF6E6E",
"V.	c #FF0606",
"W.	c #FFC5C5",
"X.	c #FFEEEE",
"Y.	c #FF9090",
"Z.	c #FF0C0C",
"`.	c #FF0101",
" +	c #FF3434",
".+	c #FFD5D5",
"++	c #78FF78",
"@+	c #FFC8C8",
"#+	c #FF4E4E",
"$+	c #FF0505",
"%+	c #FF1E1E",
"&+	c #6CFF6C",
"*+	c #FFB7B7",
"=+	c #FF4141",
"-+	c #FF1B1B",
";+	c #FF0F0F",
">+	c #FF1212",
",+	c #FF2C2C",
"'+	c #FFE6E6",
")+	c #59FF59",
"!+	c #FFFCFC",
"~+	c #FFE2E2",
"{+	c #FFA3A3",
"]+	c #FF8484",
"^+	c #FF9191",
"/+	c #FFC1C1",
"(+	c #FFF7F7",
"_+	c #C4FFC4",
":+	c #B8FFB8",
"<+	c #FFF6F6",
"[+	c #FFF2F2",
"}+	c #FFF3F3",
"|+	c #FFFAFA",
"1+	c #91FF91",
"2+	c #29FF29",
"3+	c #50FF50",
"4+	c #BAFFBA",
"5+	c #7FFF7F",
"6+	c #EFFFEF",
"7+	c #14FF14",
"8+	c #28FF28",
"9+	c #42FF42",
"0+	c #FBFFFB",
"a+	c #90FF90",
"b+	c #8BFF8B",
"c+	c #D9FFD9",
"d+	c #2DFF2D",
"e+	c #A7FFA7",
"f+	c #63FF63",
"g+	c #D3FFD3",
"h+	c #33FF33",
"i+	c #9BFF9B",
"j+	c #2BFF2B",
"k+	c #31FF31",
"l+	c #AFFFAF",
"m+	c #08FF08",
"n+	c #17FF17",
"o+	c #4CFF4C",
"p+	c #A2FFA2",
"q+	c #DEFFDE",
"r+	c #EBFFEB",
"s+	c #F5FFF5",
". . . . . . . . . . . . . . . . . . . . . . . . . . . . . . . . . . . . . . . . . . . . . . . . ",
". . . . . . . . . . . . . . . . . . + @ # $ % & * = - ; > , . . . . . . . . . . . . . . . . . . ",
". . . . . . . . . . . . . . . ' ) ! ~ { ] ^ / ( _ : < [ } | 1 2 3 4 . . . . . . . . . . . . . . ",
". . . . . . . . . . . . . . 5 6 7 8 9 0 0 0 0 0 0 0 0 0 0 a b c d e f . . . . . . . . . . . . . ",
". . . . . . . . . . . . 2 g h i j a 0 0 0 0 0 0 0 0 0 0 0 0 k l m : n o p . . . . . . . . . . . ",
". . . . . . . . . . . q [ b r 0 0 0 0 0 s t u v 7 w x y z A 0 0 0 0 B y C D . . . . . . . . . . ",
". . . . . . . . . ) E F j 0 0 0 r G u H E I J - K L M N O P Q R S 0 0 0 T } U . . . . . . . . . ",
". . . . . . . 4 # } V 0 0 0 W X Y { M . . . . . . . . . . . , Z `  ...0 0 s +.1 @.. . . . . . . ",
". . . . . . . # #.$.0 0 0 j : { %.4 . . . . . . . . . . . . . . + &.*.=.r 0 l -.U f . . . . . . ",
". . . . . . ) } $.0 0 0 ;.-.>.. . . . . . . . . . . . . . . . . . . @.,.F 0 0 0 '.! . . . . . . ",
". . . . . . E V 0 0 0 ).!.~.@.. . . . . . . . . . . . . . . . . . . . @.{.].9 0 ^.!./.. . . . . ",
". . . . . q F 0 0 0 (.!.# . . . . . . . . . . . . . . . . . . . . . . . p % ].0 0 X g . . . . . ",
". . . . 2 [ j 0 0 r _.:.. . . . . . . . . . . . . . . . . . . . . . . . . p {.F A 0 <.{.. . . . ",
". . . . g b 0 0 r [.$ . . . . . . . . . . . . . . . . . . . . . . . . . . . @.,.=.0 }.|.3 . . . ",
". . . 5 h r 0 0 1.2., . . . . . . . . . . . . . . . . . . . . . . . . . . . . @.*.3.0 4.5.. . . ",
". . ' 6 i 0 0 9 6.7.. . . . . . . . . . . . . . . . . . . . . . . . . . . . . . &. .0 }.8.. . . ",
". . ) 7 j 0 0 z O . . . . . . . . . . . . . . . . . . . . . . . . . . . . . . . + ` 9.0 4.# p . ",
". . ! 8 a 0 A Y 0.. . . . . . . . . . . . . . . . . . . . . . . . . . . . . . . . Z R 0 i a.D . ",
". + ~ 9 0 0 B b.p . . . . . . . . . . . c.d.e.f.g.h.i.. . . . . . . . . . . . . . , Q 0 ^.j.k.. ",
". @ { 0 0 0 4.l.. . . . . . . . . . . m.n.o.p.q.q.r.s.t.u.. . . . . . . . . . . . . P v.r w.0.. ",
". # ] 0 0 0 x.$ . . . . . . . . . . . y.z.q.q.q.q.q.A.B.C.. . . . . . . . . . . . . O =.0 T ! . ",
". $ ^ 0 0 0 ].D.. . . . . . . . . . E.F.G.q.q.q.q.q.H.r.I.. . . . . . . . . . . . . N < 0 ).J.. ",
". % / 0 0 0 K.. . . . . . . . . . . L.M.q.q.q.q.q.q.q.N.O.P.. . . . . . . . . . . . M x 0 Q.R.4 ",
". & ( 0 0 0 S.. . . . . . . . . . . T.U.q.q.q.q.q.q.q.V.W.P.. . . . . . . . . . . . L w 0 k 5.4 ",
". * _ 0 0 0 S.. . . . . . . . . . . X.Y.Z.q.q.q.q.q.`. +.+. . . . . . . . . . . . . K 7 0 0 N 4 ",
". = : 0 0 0 ++. . . . . . . . . . . . @+#+$+q.q.q.q.%+F.X.. . . . . . . . . . . . . - v 0 0 N 4 ",
". - < 0 0 0 &+' . . . . . . . . . . . m.*+=+-+;+>+,+M.'+P.. . . . . . . . . . . . . J u 0 0 N 4 ",
". ; [ 0 0 0 )+%.. . . . . . . . . . . . !+~+{+]+^+/+(+. . . . . . . . . . . . . . . I t 0 a _+4 ",
". > } 0 0 0 [.:+. . . . . . . . . . . . . P.<+[+}+|+. . . . . . . . . . . . . . . . E $.0 s {.. ",
". , | a 0 0 G 1+. . . . . . . . . . . . . . . . . . . . . . . . . . . . . . . . . . H 0 v.2+- . ",
". . 1 b v.0 l [ @ . . . . . . . . . . . . . . . . . . . . . . . . . . . . . . . . M u 0 Q.3+e . ",
". . 2 c l 0 0 t 4+. . . . . . . . . . . . . . . . . . . . . . . . . . . . . . . 4 { G 0 ^.5+6+. ",
". . 3 d m 0 0 7+8.' . . . . . . . . . . . . . . . . . . . . . . . . . . . . . . %.Y r 0 1.I D . ",
". . 4 e : v.0 0 8+J @.. . . . . . . . . . . . . . . . . . . . . . . . . . . . . { X 0 A 9+@ . . ",
". . . 0+n B 0 0 9 6.%.. . . . . . . . . . . . . . . . . . . . . . . . . . . @.>.: a 0 1.a+4 . . ",
". . . . o y 0 0 0 s b+5 . . . . . . . . . . . . . . . . . . . . . . . . . . ~.-.j 0 k ^ c+. . . ",
". . . . p C T 0 0 0 d+E @ . . . . . . . . . . . . . . . . . . . . . . . . # !.;.0 0 t e+p . . . ",
". . . . . D } s 0 0 0 _ E 5 . . . . . . . . . . . . . . . . . . . . . . :.!.).0 0 ^.} D . . . . ",
". . . . . . U +.l 0 0 0 d+b+%.@.. . . . . . . . . . . . . . . . . . , $ _.(.0 0 j w - . . . . . ",
". . . . . . . 1 -.0 0 0 0 s 6.J ' . . . . . . . . . . . . . . . . 7.2.[.r 0 0 W f+g+. . . . . . ",
". . . . . . . @.U '.^.0 0 0 9 8+8.4+@ . . . . . . . . . . . p 0.O 6.1.Q.0 0 9.H K 0+. . . . . . ",
". . . . . . . . f ! !.X 0 0 0 0 7+t [ 1+:+%.' . . . . D.$ l.b.Y z 9 0 0 0 h+P 2 4 . . . . . . . ",
". . . . . . . . . . /.i+<.7+0 0 0 0 l G [.)+&+++S.S.K.].x.4.S W 0 0 Q.2+] ~ @ . . . . . . . . . ",
". . . . . . . . . . . . {.|.4.7+v.0 0 0 0 0 0 0 0 0 0 0 0 0 0 0 j j+-.i+> . . . . . . . . . . . ",
". . . . . . . . . . . . . 3 5.8.4.i ^.Q.W k 0 0 0 0 0 a Q.j ).k+x l+~.. . 4 . . . . . . . . . . ",
". . . . . . . . . . . . . . . . # a.j.w.T S 9 v.v.m+n+d+o+_.p+L 0+. . . . . . . . . . . . . . . ",
". . . . . . . . . . . . . . . . p D k.0.! % J 5.5.R.J.g+q+r+s+p . . . . . . . . . . . . . . . . ",
". . . . . . . . . . . . . . . . . . . . . . 4 4 4 4 . . . . . . . . . . . . . . . . . . . . . . "};
