/* XPM */
static char * EccentricCoax_xpm[] = {
"64 64 61 1",
" 	c None",
".	c #FFFFFF",
"+	c #D5FFD5",
"@	c #9DFF9D",
"#	c #6EFF6E",
"$	c #47FF47",
"%	c #28FF28",
"&	c #12FF12",
"*	c #05FF05",
"=	c #00FF00",
"-	c #BBFFBB",
";	c #69FF69",
">	c #1FFF1F",
",	c #F7FFF7",
"'	c #8CFF8C",
")	c #88FF88",
"!	c #AEFFAE",
"~	c #42FF42",
"{	c #7BFF7B",
"]	c #AAFFAA",
"^	c #CFFFCF",
"/	c #E9FFE9",
"(	c #F9FFF9",
"_	c #35FF35",
":	c #4CFF4C",
"<	c #A5FFA5",
"[	c #F4FFF4",
"}	c #66FF66",
"|	c #D4FFD4",
"1	c #B3FFB3",
"2	c #95FF95",
"3	c #CAFFCA",
"4	c #3DFF3D",
"5	c #1EFF1E",
"6	c #09FF09",
"7	c #02FF02",
"8	c #FFF1F1",
"9	c #FF8B8B",
"0	c #FF3F3F",
"a	c #FF1010",
"b	c #FF0000",
"c	c #FF9A9A",
"d	c #FF7C7C",
"e	c #84FF84",
"f	c #BDFFBD",
"g	c #08FF08",
"h	c #5AFF5A",
"i	c #2AFF2A",
"j	c #99FF99",
"k	c #30FF30",
"l	c #6AFF6A",
"m	c #D7FFD7",
"n	c #C2FFC2",
"o	c #0FFF0F",
"p	c #27FF27",
"q	c #59FF59",
"r	c #14FF14",
"s	c #07FF07",
"t	c #68FF68",
"u	c #06FF06",
"v	c #5FFF5F",
"................................................................",
"................................................................",
"........................+@#$%&*=*&%$#@+.........................",
".....................-;>===============>;-......................",
"..................,'%=====================%',...................",
".................)&=========================&)..................",
"...............!%=============================%!................",
"..............;===========~{]^/(.(/^]{~=========;...............",
"............+_=========:<[.............[<:=======_+.............",
"...........-&========}|...................|}======&-............",
"..........1========:^.......................^:======1...........",
".........-========2...........................2======-..........",
"........+&======%3.............................3%====&+.........",
"........_======4/.............................../4====_.........",
".......;======4[.................................[4====;........",
"......!======%/.................................../%====!.......",
"......%======3.....................................3====%.......",
".....)======2.......................................2====)......",
"....,&=====:.........................................:===&,.....",
"....'======^.........................................^===='.....",
"....%=====}...........................................}===%.....",
"...-======|...........................................|====-....",
"...;=====:.............................................:===;....",
"...>=====<.............................................<===>....",
"..+======[.............................................[====+...",
"..@=====~...............................................~===@...",
"..#====={...............................................{===#...",
"..$=====]...............................................]===$...",
"..%=====^...............................................^===5...",
"..&=====/.............................................../===6...",
"..*=====(...............................................(===7...",
"..======.................................................====...",
"..*=====(..................890aba098....................(====...",
"..&=====/.................cabbbbbbbac.................../====...",
"..%=====^................dbbbbbbbbbbbd..................^====...",
"..$=====]...............cbbbbbbbbbbbbbc.................]===7...",
"..#====={..............8abbbbbbbbbbbbba8................{===6...",
"..@=====~..............9bbbbbbbbbbbbbbb9................~===5...",
"..+======[.............0bbbbbbbbbbbbbbb0...............[====$...",
"...>=====<.............abbbbbbbbbbbbbbba...............<====e...",
"...;=====:.............bbbbbbbbbbbbbbbbb...............:====f...",
"...-======|............abbbbbbbbbbbbbbba..............|====g....",
"....%=====}............0bbbbbbbbbbbbbbb0..............}====h....",
"....'======^...........9bbbbbbbbbbbbbbb9.............^=====1....",
"....,&=====:...........8abbbbbbbbbbbbba8.............:====i.....",
".....)======2...........cbbbbbbbbbbbbbc.............2=====j.....",
"......%======3...........dbbbbbbbbbbbd.............3=====k......",
"......!======%/...........cabbbbbbbac............./%=====1......",
".......;======4[...........890aba098.............[4=====l.......",
"........_======4/.............................../4=====_........",
"........+&======%3.............................3%=====&m........",
".........-========2...........................2======gn.........",
"..........1========:^.......................^:======on..........",
"...........-&========}|...................|}=======pm...........",
"............+_=========:<[.............[<:========q.............",
"..............;===========~{]^/(.(/^]{~=========r1..............",
"...............!%=============================st................",
".................)&=========================uv..................",
"..................,'%=====================5',...................",
".....................-;>===============>;-......................",
"........................+@#$%&*=*&%$#@+.........................",
"................................................................",
"................................................................",
"................................................................"};
