/* XPM */
static char * EccentricCoax_xpm[] = {
"48 48 175 2",
"  	c None",
". 	c #FFFFFF",
"+ 	c #E3FFE3",
"@ 	c #C2FFC2",
"# 	c #A8FFA8",
"$ 	c #91FF91",
"% 	c #85FF85",
"& 	c #80FF80",
"* 	c #84FF84",
"= 	c #8EFF8E",
"- 	c #9FFF9F",
"; 	c #BCFFBC",
"> 	c #DCFFDC",
", 	c #FAFFFA",
"' 	c #F2FFF2",
") 	c #ADFFAD",
"! 	c #65FF65",
"~ 	c #32FF32",
"{ 	c #21FF21",
"] 	c #14FF14",
"^ 	c #09FF09",
"/ 	c #03FF03",
"( 	c #00FF00",
"_ 	c #02FF02",
": 	c #07FF07",
"< 	c #10FF10",
"[ 	c #1EFF1E",
"} 	c #2EFF2E",
"| 	c #4FFF4F",
"1 	c #9EFF9E",
"2 	c #E6FFE6",
"3 	c #F8FFF8",
"4 	c #D0FFD0",
"5 	c #7EFF7E",
"6 	c #17FF17",
"7 	c #0FFF0F",
"8 	c #56FF56",
"9 	c #C7FFC7",
"0 	c #F0FFF0",
"a 	c #E1FFE1",
"b 	c #26FF26",
"c 	c #18FF18",
"d 	c #6CFF6C",
"e 	c #C6FFC6",
"f 	c #44FF44",
"g 	c #19FF19",
"h 	c #52FF52",
"i 	c #86FF86",
"j 	c #A5FFA5",
"k 	c #B8FFB8",
"l 	c #BEFFBE",
"m 	c #B5FFB5",
"n 	c #A0FFA0",
"o 	c #77FF77",
"p 	c #47FF47",
"q 	c #0CFF0C",
"r 	c #05FF05",
"s 	c #23FF23",
"t 	c #ABFFAB",
"u 	c #06FF06",
"v 	c #27FF27",
"w 	c #68FF68",
"x 	c #CAFFCA",
"y 	c #FBFFFB",
"z 	c #F9FFF9",
"A 	c #57FF57",
"B 	c #20FF20",
"C 	c #0AFF0A",
"D 	c #66FF66",
"E 	c #ECFFEC",
"F 	c #7CFF7C",
"G 	c #1CFF1C",
"H 	c #7AFF7A",
"I 	c #CEFFCE",
"J 	c #F4FFF4",
"K 	c #C0FFC0",
"L 	c #13FF13",
"M 	c #48FF48",
"N 	c #0BFF0B",
"O 	c #38FF38",
"P 	c #BAFFBA",
"Q 	c #F6FFF6",
"R 	c #EBFFEB",
"S 	c #A1FFA1",
"T 	c #55FF55",
"U 	c #78FF78",
"V 	c #46FF46",
"W 	c #08FF08",
"X 	c #5DFF5D",
"Y 	c #F7FFF7",
"Z 	c #DDFFDD",
"` 	c #5BFF5B",
" .	c #0DFF0D",
"..	c #6EFF6E",
"+.	c #EDFFED",
"@.	c #FEFFFE",
"#.	c #D1FFD1",
"$.	c #D7FFD7",
"%.	c #A4FFA4",
"&.	c #83FF83",
"*.	c #01FF01",
"=.	c #E9FFE9",
"-.	c #41FF41",
";.	c #E0FFE0",
">.	c #88FF88",
",.	c #24FF24",
"'.	c #25FF25",
").	c #4AFF4A",
"!.	c #D5FFD5",
"~.	c #87FF87",
"{.	c #B6FFB6",
"].	c #40FF40",
"^.	c #FFF2F2",
"/.	c #FFC4C4",
"(.	c #FF5A5A",
"_.	c #FF1E1E",
":.	c #FF0303",
"<.	c #FF1515",
"[.	c #FF4C4C",
"}.	c #FFA5A5",
"|.	c #FFECEC",
"1.	c #E5FFE5",
"2.	c #FFEFEF",
"3.	c #FF8585",
"4.	c #FF1919",
"5.	c #FF0000",
"6.	c #FF0606",
"7.	c #FF6969",
"8.	c #FFDEDE",
"9.	c #FF8E8E",
"0.	c #FF1010",
"a.	c #FF0808",
"b.	c #FFE1E1",
"c.	c #FF0909",
"d.	c #FCFFFC",
"e.	c #FF8C8C",
"f.	c #FF5555",
"g.	c #97FF97",
"h.	c #0EFF0E",
"i.	c #FF4343",
"j.	c #DAFFDA",
"k.	c #E7FFE7",
"l.	c #FF5D5D",
"m.	c #FF9A9A",
"n.	c #76FF76",
"o.	c #2BFF2B",
"p.	c #FFF7F7",
"q.	c #FF2626",
"r.	c #71FF71",
"s.	c #FFA9A9",
"t.	c #FF1F1F",
"u.	c #FF0F0F",
"v.	c #72FF72",
"w.	c #C9FFC9",
"x.	c #FF8B8B",
"y.	c #04FF04",
"z.	c #67FF67",
"A.	c #4EFF4E",
"B.	c #E2FFE2",
"C.	c #E8FFE8",
"D.	c #16FF16",
"E.	c #79FF79",
"F.	c #EAFFEA",
"G.	c #F5FFF5",
"H.	c #2DFF2D",
"I.	c #AEFFAE",
"J.	c #8BFF8B",
"K.	c #6DFF6D",
"L.	c #11FF11",
"M.	c #5EFF5E",
"N.	c #A9FFA9",
"O.	c #DBFFDB",
"P.	c #5AFF5A",
"Q.	c #6FFF6F",
"R.	c #9BFF9B",
". . . . . . . . . . . . . . . . . . . . . . . . . . . . . . . . . . . . . . . . . . . . . . . . ",
". . . . . . . . . . . . . . . . . . + @ # $ % & * = - ; > , . . . . . . . . . . . . . . . . . . ",
". . . . . . . . . . . . . . . ' ) ! ~ { ] ^ / ( _ : < [ } | 1 2 . . . . . . . . . . . . . . . . ",
". . . . . . . . . . . . 3 4 5 6 ( ( ( ( ( ( ( ( ( ( ( ( ( ( ( 7 8 9 0 . . . . . . . . . . . . . ",
". . . . . . . . . . . a & b _ ( ( ( ( ( ( ( ( ( ( ( ( ( ( ( ( ( ( c d e . . . . . . . . . . . . ",
". . . . . . . . . . 9 f : ( ( ( ( ( ( g h i j k l m n o p q ( ( ( ( r s t . . . . . . . . . . . ",
". . . . . . . . ' % ] ( ( ( ( u v w x y . . . . . . . . . z t A B ( ( ( C D > . . . . . . . . . ",
". . . . . . . E F : ( ( ( ( G H I , . . . . . . . . . . . . . J K A L ( ( r M + . . . . . . . . ",
". . . . . . ' F N ( ( ( ( O P Q . . . . . . . . . . . . . . . . . R S G ( ( ( T 2 . . . . . . . ",
". . . . . . % : ( ( ( N U R . . . . . . . . . . . . . . . . . . . . . a V W ( / X R . . . . . . ",
". . . . . 9 ] ( ( ( 7 H Y . . . . . . . . . . . . . . . . . . . . . . . Z ` W (  .= . . . . . . ",
". . . . a f ( ( ( W ..+.. . . . . . . . . . . . . . . . . . . . . . . . @.Z V ( ( ] #.. . . . . ",
". . . 3 & W ( ( ( h R . . . . . . . . . . . . . . . . . . . . . . . . . . . a G ( ( | 0 . . . . ",
". . . 4 v ( ( ( G $.. . . . . . . . . . . . . . . . . . . . . . . . . . . . . S L ( L %.@.. . . ",
". . . 5 _ ( ( ( &.. . . . . . . . . . . . . . . . . . . . . . . . . . . . . . R A ( *.8 =.. . . ",
". . ' 6 ( ( ( -.;.. . . . . . . . . . . . . . . . . . . . . . . . . . . . . . . K B ( 7 P . . . ",
". . ) ( ( ( ^ >., . . . . . . . . . . . . . . . . . . . . . . . . . . . . . . . J A ( ( ... . . ",
". . ! ( ( ( ,.9 . . . . . . . . . . . . . . . . . . . . . . . . . . . . . . . . . t ( ( '.. . . ",
". + ~ ( ( ( ).y . . . . . . . . . . . . . . . . . . . . . . . . . . . . . . . . . z q ( ( !.. . ",
". @ { ( ( ( ~.. . . . . . . . . . . . . . . . . . . . . . . . . . . . . . . . . . . p ( ( %.. . ",
". # ] ( ( ( {.. . . . . . . . . . . . . . . . . . . . . . . . . . . . . . . . . . . o ( ( F . . ",
". $ ^ ( ( ( ;.. . . . . . . . . . . . . . . . . . . . . . . . . . . . . . . . . . . n ( ( h . . ",
". % / ( ( ( J . . . . . . . . . . . . . . . . . . . . . . . . . . . . . . . . . . . m ( ( f . . ",
". & ( ( ( ( @.. . . . . . . . . . . . . . . . . . . . . . . . . . . . . . . . . . . l ( ( ].. . ",
". * _ ( ( ( Y . . . . . . . . . . . . ^./.(._.:.<.[.}.|.. . . . . . . . . . . . . . k ( ( ].. . ",
". = : ( ( ( 1.. . . . . . . . . . . 2.3.4.5.5.5.5.5.6.7.8.. . . . . . . . . . . . . j ( ( ].. . ",
". - < ( ( ( e . . . . . . . . . . . 9.0.5.5.5.5.5.5.5.a.7.|.. . . . . . . . . . . . i ( ( -.. . ",
". ; [ ( ( ( $ . . . . . . . . . . b.c.5.5.5.5.5.5.5.5.5.6.}.. . . . . . . . . . . . h ( ( ).. . ",
". > } ( ( ( A d.. . . . . . . . . e.5.5.5.5.5.5.5.5.5.5.5.[.. . . . . . . . . . . y g ( ( D . . ",
". , | ( ( ( } > . . . . . . . . . f.5.5.5.5.5.5.5.5.5.5.5.<.. . . . . . . . . . . x ( ( ( g.. . ",
". . 1 ( ( ( h.g.d.. . . . . . . . i.5.5.5.5.5.5.5.5.5.5.5.:.. . . . . . . . . . , w ( ( _ j.. . ",
". . 1.7 ( ( ( | k.. . . . . . . . l.5.5.5.5.5.5.5.5.5.5.5._.. . . . . . . . . . I v ( ( '.. . . ",
". . . 8 ( ( (  .t . . . . . . . . m.5.5.5.5.5.5.5.5.5.5.5.(.. . . . . . . . . Q H u ( ( n.. . . ",
". . . 9 c ( ( ( o.R . . . . . . . p.q.5.5.5.5.5.5.5.5.5.4./.. . . . . . . . . P G ( ( s #.. . . ",
". . . 0 d r ( ( ( r.' . . . . . . . s.t.5.5.5.5.5.5.5.u.3.^.. . . . . . . . R O ( ( u v.' . . . ",
". . . . e s ( ( ( ] n y . . . . . . p.s.q.5.5.5.5.5.c.9.2.. . . . . . . . Y U ( ( ( '.w.. . . . ",
". . . . . t C ( ( ( 6 n y . . . . . . . p.m.l.i.f.x.b.. . . . . . . . . +.H N ( ( C t . . . . . ",
". . . . . . D y.( ( ( 6 n ' . . . . . . . . . . . . . . . . . . . . . R ..7 ( ( r z.. . . . . . ",
". . . . . . > M ( ( ( ( ] r.R . . . . . . . . . . . . . . . . . . . $.h : ( ( _ A.Z . . . . . . ",
". . . . . . . B.T / ( ( ( ( o.t k.d.. . . . . . . . . . . . . , ;.&.G ( ( ( : ! C.. . . . . . . ",
". . . . . . . . 1.X  .( ( ( (  .| g.> d.. . . . . . . . . y 9 >.-.( ( ( ( D.E.0 . . . . . . . . ",
". . . . . . . . . F.= ] ( ( ( ( ( h.} A $ e 1.Y @.G.;.{.~.).,.C ( ( ( ( H.I.G.. . . . . . . . . ",
". . . . . . . . . . . #.| L *.( ( ( ( ( ( ( ( ( ( ( ( ( ( ( ( ( ( : } F . . . . . . . . . . . . ",
". . . . . . . . . . . . 0 %.8 7 ( ( ( ( ( ( ( ( ( ( ( ( ( ( ( W O J.$.. . . . . . . . . . . . . ",
". . . . . . . . . . . . . @.=.P K.'.( ( ( ( ( ( ( ( ( ( ( L.M.N.O.@.. . . . . . . . . . . . . . ",
". . . . . . . . . . . . . . . . . . !.%.F P.M -.V T Q.R.x Y . . . . . . . . . . . . . . . . . . ",
". . . . . . . . . . . . . . . . . . . . . . . . . . . . . . . . . . . . . . . . . . . . . . . . ",
". . . . . . . . . . . . . . . . . . . . . . . . . . . . . . . . . . . . . . . . . . . . . . . . "};
