/* XPM */
static char * FiniteDifference_xpm[] = {
"48 48 103 2",
"  	c None",
". 	c #00FF00",
"+ 	c #30FF30",
"@ 	c #60FF60",
"# 	c #48FF48",
"$ 	c #0CFF0C",
"% 	c #7CFF7C",
"& 	c #E7FFE7",
"* 	c #FFFFFF",
"= 	c #B8FFB8",
"- 	c #1CFF1C",
"; 	c #40FF40",
"> 	c #28FF28",
", 	c #78FF78",
"' 	c #B7FFB7",
") 	c #CFFFCF",
"! 	c #50FF50",
"~ 	c #10FF10",
"{ 	c #BFFFBF",
"] 	c #E3FFE3",
"^ 	c #DBFFDB",
"/ 	c #5CFF5C",
"( 	c #A0FFA0",
"_ 	c #70FF70",
": 	c #14FF14",
"< 	c #20FF20",
"[ 	c #80FF80",
"} 	c #18FF18",
"| 	c #08FF08",
"1 	c #EFFFEF",
"2 	c #A8FFA8",
"3 	c #AFFFAF",
"4 	c #98FF98",
"5 	c #34FF34",
"6 	c #D3FFD3",
"7 	c #77FF77",
"8 	c #F3FFF3",
"9 	c #88FF88",
"0 	c #97FF97",
"a 	c #24FF24",
"b 	c #9FFF9F",
"c 	c #A3FFA3",
"d 	c #38FF38",
"e 	c #64FF64",
"f 	c #FFCFCF",
"g 	c #FF7C7C",
"h 	c #FF2828",
"i 	c #FF7070",
"j 	c #FFE7E7",
"k 	c #54FF54",
"l 	c #FFF3F3",
"m 	c #FF9797",
"n 	c #FFD7D7",
"o 	c #FFB8B8",
"p 	c #FF0000",
"q 	c #FF2424",
"r 	c #FFA7A7",
"s 	c #FFF7F7",
"t 	c #FFEFEF",
"u 	c #FF7F7F",
"v 	c #FF1010",
"w 	c #FF9F9F",
"x 	c #FF1818",
"y 	c #A7FFA7",
"z 	c #D7FFD7",
"A 	c #FFAFAF",
"B 	c #FF3030",
"C 	c #CBFFCB",
"D 	c #FF4848",
"E 	c #FF9090",
"F 	c #FFB7B7",
"G 	c #F7FFF7",
"H 	c #8FFF8F",
"I 	c #FF6060",
"J 	c #FF6767",
"K 	c #FFA0A0",
"L 	c #FF8F8F",
"M 	c #FF9898",
"N 	c #FF0808",
"O 	c #FF1C1C",
"P 	c #FF5858",
"Q 	c #FF8080",
"R 	c #FF6868",
"S 	c #FF5C5C",
"T 	c #C7FFC7",
"U 	c #DFFFDF",
"V 	c #FFBFBF",
"W 	c #FF5454",
"X 	c #2CFF2C",
"Y 	c #FF9494",
"Z 	c #FF2C2C",
"` 	c #FF2020",
" .	c #FF0404",
"..	c #FFABAB",
"+.	c #FF6F6F",
"@.	c #7FFF7F",
"#.	c #FFEBEB",
"$.	c #FBFFFB",
"%.	c #B3FFB3",
"&.	c #3CFF3C",
"*.	c #68FF68",
"=.	c #90FF90",
"-.	c #C0FFC0",
". . . . . . . . . . . . . . . . . . . . . . . . . . . . . . . . . . . . . . . . . . . . . . . . ",
". . . . . . . . . . . . . . . . . . . . . . . . . . . . . . . . . . . . . . . . . . . . . . . . ",
". . . . . . . . . . . . . . . . . . . . . . + @ @ # $ . . . . . . . . . . . . . . . . . . . . . ",
". . . . . . . . . . . . . . . . . . . . . % & * * * = $ . . . . . . . . . . . - ; ; ; ; > . . . ",
". . . . . . . . . . . . . . . . . . . . + & * * * * * , . . . . . . . . . . # ' * * * * ) ! ~ . ",
". . . . . . . . . . . . . . . . . . . . @ * * * * * * { . . . . . . . . $ , ] * * * * * * ^ ! . ",
". . . . . . . . . . ~ / ( ( ( ( _ ; : < [ * * * * * * ) ; > } . . . . } = * * * * * * * * * { < ",
". . . . . . . . . | _ 1 * * * * * * 2 { 1 * * * * * * * * ) 3 @ > . ~ 4 * * * * * * * * * * { < ",
". . . . . . . . . 5 & * * * * * * * * * * * * * * * * * * * * 1 6 7 [ 8 * * * * * * * * * * { < ",
". . . . . . . . . 9 * * * * * * * * * * * * * * * * * * * * * * * * * * * * * * * * * * * * 0 $ ",
". . . . . . . . . & * * * * * * * * * * * * * * * * * * * * * * * * * * * * * * * * * * * & ! . ",
". . . . . . . . a * * * * * * * * * * * * * * * * * * * * * * * * * * * * * * * * * * * * b | . ",
". . . . . . . ~ c * * * * * * * * * * * * * * * * * * * * * * * * * * * * * * * * * * * ) . . . ",
". . . . . . | _ 1 * * * * * * * * * * * * * * * * * * * * * * * * * * * * * * * * * * 1 d . . . ",
". . . . . . - ' * * * * * * * * * * * * * * * * * * * * * * * * * * * * * * * * * * * 0 $ . . . ",
". . . . . . e * * * * * * * * * * * * * * * * * * * * * * * * * * * * * * * * * * 8 7 . . . . . ",
". . . . . . & * * * * * * * * * * * * * * * * * * * f f * * * * * * * * * * * * * ' } . . . . . ",
". . . . . . * * * * * * * * * * * * * * * * * * * * g h i j * * * * * * * * * * * & . . . . . . ",
". . . . . k * * * * * * * * * * * l m n * * * * * * o p p q r s * * * * * * * * * * # . . . . . ",
". . . . . { * * * * * * * * * * t u v w * * * * * * * p p p x w s * * * * * * * * * y . . . . . ",
". . . . + z * * * * * * * * * * A x p u * * * * * * * p p p p B n * * * * * * * * * C } . . . . ",
". . . : y * * * * * * * * * * n B p p u * * * * * * l p p p p p D * * * * * * * * * ] # . . . . ",
". . . < { * * * * * * * * * * E p p p u * * * * * * F p p p p p p f * * * * * * * * G H ~ . . . ",
". . . < { * * * * * * * * * * I p p p J l * * * * * g p p p p p p K * * * * * * * * * 1 / . . . ",
". . . ; * * * * * * * * * * * p p p p p L l * * l M x p p p p N O P * * * * * * * * * * = $ . . ",
". . . ; * * * * * * * * * * * p p p p p p J Q Q R v p p p p v i F f * * * * * * * * * * * # . . ",
". . . ; * * * * * * * * * * * p p p p p p p p p p p p p p p S t * * * * * * * * * * * * * y . . ",
". . . ; * * * * * * * * * * * x p p p p p p p p p p p p p p * * * * * * * * * * * * * * * T ~ . ",
". . . ; * * * * * * * * * * * I p p p p p p p p p p p p p p * * * * * * * * * * * * * * * U ; . ",
". . . ; * * * * * * * * * * * n V V W x p p p p p p p p p p * * * * * * * * * * * * * * * U ; . ",
". . . X z * * * * * * * * * * * * * * * Y Z ` ` p p p  .h ..* * * * * * * * * * * * * * * U ; . ",
". . . ~ ( * * * * * * * * * * * * * * * * n V V P ` p +.f * * * * * * * * * * * * * * * * & ! . ",
". . . . @.* * * * * * * * * * * * * * * * * * * #.f V l * * * * * * * * * * * * * * * * * $.7 . ",
". . . . , $.* * * * * * * * * * * * * * * * * * * * * * * * * * * * * * * * * * * * * * * * @.. ",
". . . . ! & * * * * * * * * * * * * * * * * * * * * * * * * * * * * * * * * * * * * * * * * @.. ",
". . . . > 6 * * * * * * * * * * * * * * * * * * * * * * * * * * * * * * * * * * * * * * * & ! . ",
". . . . . %.* * * * * * * * * * * * * * * * * * * * * * * * * * * * * * * * * * * * * * * C + . ",
". . . . . # * * * * * * * * * * * * * * * * * * * * * * * * * * * * * * * * * * * * * * * @ . . ",
". . . . . . = * * * * * * * * * * * * * * * * * * * * * * * * * * * * * * * * * * * * * = $ . . ",
". . . . . . / 1 * * * * * * * * * * * * * * * * * * * * * * * * * * * * * * * * * * * ) > . . . ",
". . . . . . ~ _ & * * * * * * * * * * * * * * * * * * * * * * * * * * * * * * * * * 1 _ | . . . ",
". . . . . . . | 5 * * * * * * * * * * * * * * * * * * * * * * * * * * * * * * * * * c ~ . . . . ",
". . . . . . . . . a y C 8 * * * * * * * * * * * * * * * * * * * * * * * * * * * * 8 # . . . . . ",
". . . . . . . . . . . } , ) G * * * * * * * * * * * * * * * * * * * * * * * * * 1 0 . . . . . . ",
". . . . . . . . . . . . | > &.% ) * * * * * * * * * * * * * * * * * * * * * * & *.} . . . . . . ",
". . . . . . . . . . . . . . . . . . @ =.{ ] G * * * * * * * * 1 6 y @ @ @ @ @ a . . . . . . . . ",
". . . . . . . . . . . . . . . . . . . . . # _ [ =.-.-.-.-.-.= _ > . . . . . . . . . . . . . . . ",
". . . . . . . . . . . . . . . . . . . . . . . . | < < < < < - | . . . . . . . . . . . . . . . . "};
