/* XPM */
static char * icon_E_xpm[] = {
"48 48 133 2",
"  	c None",
". 	c #2F2F2F",
"+ 	c #323232",
"@ 	c #343434",
"# 	c #353535",
"$ 	c #363636",
"% 	c #373737",
"& 	c #383838",
"* 	c #393939",
"= 	c #3A3A3A",
"- 	c #3B3B3B",
"; 	c #3C3C3C",
"> 	c #3D3D3D",
", 	c #3E3E3E",
"' 	c #3F3F3F",
") 	c #444444",
"! 	c #494949",
"~ 	c #4D4D4D",
"{ 	c #515151",
"] 	c #545454",
"^ 	c #575757",
"/ 	c #5A5A5A",
"( 	c #5C5C5C",
"_ 	c #5E5E5E",
": 	c #606060",
"< 	c #626262",
"[ 	c #646464",
"} 	c #656565",
"| 	c #666666",
"1 	c #676767",
"2 	c #686868",
"3 	c #696969",
"4 	c #636363",
"5 	c #616161",
"6 	c #555555",
"7 	c #525252",
"8 	c #4E4E4E",
"9 	c #4B4B4B",
"0 	c #474747",
"a 	c #424242",
"b 	c #484848",
"c 	c #4F4F4F",
"d 	c #585858",
"e 	c #5F5F5F",
"f 	c #6A6A6A",
"g 	c #4C4C4C",
"h 	c #454545",
"i 	c #434343",
"j 	c #505050",
"k 	c #535353",
"l 	c #565656",
"m 	c #595959",
"n 	c #5B5B5B",
"o 	c #5D5D5D",
"p 	c #6B6B6B",
"q 	c #6C6C6C",
"r 	c #6D6D6D",
"s 	c #6E6E6E",
"t 	c #6F6F6F",
"u 	c #707070",
"v 	c #717171",
"w 	c #727272",
"x 	c #737373",
"y 	c #747474",
"z 	c #757575",
"A 	c #767676",
"B 	c #777777",
"C 	c #787878",
"D 	c #797979",
"E 	c #7A7A7A",
"F 	c #7B7B7B",
"G 	c #7C7C7C",
"H 	c #7D7D7D",
"I 	c #7E7E7E",
"J 	c #404040",
"K 	c #7F7F7F",
"L 	c #808080",
"M 	c #818181",
"N 	c #828282",
"O 	c #838383",
"P 	c #848484",
"Q 	c #858585",
"R 	c #414141",
"S 	c #868686",
"T 	c #878787",
"U 	c #888888",
"V 	c #8A8A8A",
"W 	c #8C8C8C",
"X 	c #8D8D8D",
"Y 	c #898989",
"Z 	c #8F8F8F",
"` 	c #929292",
" .	c #939393",
"..	c #909090",
"+.	c #919191",
"@.	c #8E8E8E",
"#.	c #8B8B8B",
"$.	c #969696",
"%.	c #999999",
"&.	c #9B9B9B",
"*.	c #979797",
"=.	c #949494",
"-.	c #959595",
";.	c #989898",
">.	c #9D9D9D",
",.	c #A4A4A4",
"'.	c #A8A8A8",
").	c #A2A2A2",
"!.	c #9C9C9C",
"~.	c #9E9E9E",
"{.	c #A5A5A5",
"].	c #A3A3A3",
"^.	c #9A9A9A",
"/.	c #B4B4B4",
"(.	c #B7B7B7",
"_.	c #B2B2B2",
":.	c #A9A9A9",
"<.	c #A7A7A7",
"[.	c #A1A1A1",
"}.	c #A6A6A6",
"|.	c #9F9F9F",
"1.	c #A0A0A0",
"2.	c #AAAAAA",
"3.	c #B3B3B3",
"4.	c #ABABAB",
"5.	c #BEBEBE",
"6.	c #C3C3C3",
"7.	c #ACACAC",
"8.	c #B6B6B6",
"9.	c #C1C1C1",
"0.	c #AEAEAE",
"a.	c #ADADAD",
"b.	c #B9B9B9",
". . . . . . . . . . . . . . . . . . . . . . . . . . . . . . . . . . . . . . . . . . . . . . . . ",
". . . . . . . . . . . . . . . . . . . . . . . . . . . . . . . . . . . . . . . . . . . . . . . . ",
". . . + @ # $ % & * = = - - ; ; ; > > > > , , , , , > > > > ; ; ; - - = = * & & % $ # @ + . . . ",
". . + ' ) ! ~ { ] ^ / ( _ : < [ } | 1 2 3 3 3 3 3 3 2 1 | } } 4 5 : _ ( / ^ 6 7 8 9 0 a > . . . ",
". . @ ) b 9 c 7 6 d / ( e : < [ } | 1 2 3 3 f f 3 3 2 2 1 } } 4 < : _ ( / ^ 6 7 c g ! h i . . . ",
". . # ! 9 8 j k l m n o : 5 4 } } 1 2 3 3 f f f f f 3 2 1 | } [ < : e o n d l ] { 8 g ! b . . . ",
". . % 8 c { k l d / ( _ : < [ } | 1 2 3 f f f f f f f 3 2 1 } } 4 5 : _ ( / ^ 6 k j 8 ~ g . . . ",
". . & 7 7 ] l ^ / ( _ : 5 4 } | 1 2 f f f f p p p f f f 3 2 | } [ < : e o n m ^ 6 k { j j . . . ",
". . * 6 l ^ d / ( _ : 5 4 } | 1 3 f f p p q q q q p p f f 3 1 | } [ < : e ( n m ^ l ] k 7 . . . ",
". . * d m / n ( _ : 5 4 } | 1 3 f f p q r r r r r r q p f f 3 1 | } 4 5 : _ ( n / d ^ l l . . . ",
". . = ( ( o _ e : < [ } | 2 3 f p q r s s t t t t s s r q p f 3 2 | } 4 < : e o ( n / m m . . . ",
". . - e e : 5 < 4 [ } 1 2 f p q r s t t t u u u u t t t s r p f 3 2 | } [ < 5 : _ o ( ( ( . . . ",
". . ; < < 4 [ [ } | 2 3 f q r s t t u v v w w w w v v u t t s q p f 2 1 } [ 4 < 5 : e e _ . . . ",
". . ; } } } | 1 2 3 f p r s t u v w x x y y y y y x x w v u t s r p f 3 2 | } [ 4 < 5 5 5 . . . ",
". . > 2 2 2 3 f f p r s t u v w x y z z z A A A A z z y y w v u t s q p f 2 1 | } } [ [ [ . . . ",
". . , f f p p q r s t u w x y z A B B C C C C C C C B A z y y w v u s r q f f 3 2 1 | | | . . . ",
". . , r r s s t u v w x y z A C D D E E E F F F E E E D C B A z x w u t s r q f f 3 3 2 2 . . . ",
". . ' t t u u v w x y A B C D E G G H I I I I I I I H G F E D B A y x w u t s r q p f f f . . . ",
". . J w w x x y z A B D E F H I K L L L M N M M L L L K I H G E D B z y w v u t s r r q q . . . ",
". . J y y z z A C D E F H K L N O P P P Q Q Q P P P P O N L K H F D C A y x w v u t t s s . . . ",
". . R A B B C D E F H K L N P S T U U U U U U U U U U T S P N L I G E C B z y x w v u u u . . . ",
". . R D D D E F G I L N P S U V W X X X W W W W W W W W V Y S P M K H E D B z y y x w w v . . . ",
". . a E E F G I K L N P T V X Z `  .` ` ..Z Z Z Z ..+.+...@.#.U P N K H F D C A z y y x x . . . ",
". . a G H H I K M O Q T V @.` $.%.&.%.*.=. .` `  .-.*.%.;.=...#.U P N K H E D C A z y y y . . . ",
". . i I I K K M O P T V X +.$.>.,.'.).!.;.-.=.=.$.%.~.{.].!.-.Z #.T P M I G E D C A A z z . . . ",
". . i K K L M N P S Y W ..=.^.]./.,.V N I G G G H L T =.(.].%.` X Y Q N L I F D D C B A A . . . ",
". . i K L M N P Q U V @.` *.>.{._.7 . . . . . . . . . . _.,.&.=.Z V T P M K G E D C B B A . . . ",
". . i L L M O P S Y #.Z  .;.>.].:.8 . . . . . . . . . . <.[.&.-...W U P N K H F D D C B B . . . ",
". . i L M N O P T Y W ..=.;.>.).}.~ . . . . . . . . . . ).|.&.$.+.X Y Q N K H F D D C B B . . . ",
". . i L L M O P T Y W ..=.%.>.).,.~ . . . . . . . . . . ).|.&.$.` X Y S N L H F D C B B A . . . ",
". . i K L M N P S Y W ..=.%.~.].}.~ . . . . . . . . . . ].1.!.*.` @.Y S N K H F D C B A A . . . ",
". . i K K L N P S Y W ..=.^.|.{.2.8 . . . . . . . . . . '.,.~.;.` @.Y Q N K G E C B A z y . . . ",
". . a H I K L N P U #.Z =.^.1.:.3.{ . . . . . . . . . . _.:.1.;.` X Y Q M I F D B z y y y . . . ",
". . a F G H K L O S V @. .%.1.4.5.A 7 c 8 ~ ~ ~ 8 c { l 6.7.1.;.` W U P L H E C A y x w w . . . ",
". . R D D E G K M P U W +.*.~.'.8.9.8.0.2.'.<.<.:.a.3.5.b.2.|.*...#.S O K F D A y w v u u . . . ",
". . R A B C E G K N S V Z -.&.).2.0.a.2.'.}.}.}.<.:.7.0.2.].&.-.Z V Q M H E B y w u t s s . . . ",
". . J x y z B D H L P U W +.*.!.).{.}.{.,.].].].,.{.{.{.).>.*.` W U O K G C z w u s q p p . . . ",
". . ' t u w y A D H M Q V @. .;.!.|.1.[.[.[.[.[.[.[.1.|.!.;.=.Z V S N I E A x u r p 3 2 2 . . . ",
". . , p q s u y B E K O T #... .*.^.!.>.~.~.~.~.~.>.!.&.;.=.+.W U P L G C y v s f 2 | } [ . . . ",
". . > | 2 f r u y C G L P Y X ..=.*.;.^.&.!.!.!.&.^.%.*.-.` @.V S N I E A w s p 2 } < 5 : . . . ",
". . - 5 4 | 3 r v z E I N S V @.+.=.$.;.;.%.%.%.%.;.*.-.` Z W U P L G C y u q 3 } 5 e ( n . . . ",
". . = n _ 5 | f t x C G L Q U W Z ` =.$.*.;.;.;.*.$.-. ...@.V T O K F B x t f | < _ / d l . . . ",
". . & ] d o < 1 q v A F K O T V @... .=.-.$.*.*.$.-. .` Z X Y S N I E A w r 3 [ : n l 7 c . . . ",
". . $ g k m : | p u z E I N S V X Z `  .=.-.$.$.-.=. .+.@.W U Q N I D z v r 2 4 _ m k ~ b . . . ",
". . + J 0 ~ k ^ ( : 4 1 f r u w z B D E F G G G F E E C A y w t r f 1 [ : o m l 7 ~ ! i ; . . . ",
". . . . . . . . . . . . . . . . . . . . . . . . . . . . . . . . . . . . . . . . . . . . . . . . ",
". . . . . . . . . . . . . . . . . . . . . . . . . . . . . . . . . . . . . . . . . . . . . . . . ",
". . . . . . . . . . . . . . . . . . . . . . . . . . . . . . . . . . . . . . . . . . . . . . . . "};
