/* XPM */
static char * icon_V_xpm[] = {
"48 48 253 2",
"  	c None",
". 	c #000000",
"+ 	c #010000",
"@ 	c #020000",
"# 	c #030000",
"$ 	c #040000",
"% 	c #080000",
"& 	c #0C0000",
"* 	c #0F0000",
"= 	c #120000",
"- 	c #140000",
"; 	c #160000",
"> 	c #180000",
", 	c #190000",
"' 	c #1A0000",
") 	c #1C0000",
"! 	c #1D0000",
"~ 	c #1E0000",
"{ 	c #1F0000",
"] 	c #200000",
"^ 	c #210000",
"/ 	c #220000",
"( 	c #100000",
"_ 	c #0E0000",
": 	c #0A0000",
"< 	c #060000",
"[ 	c #130000",
"} 	c #170000",
"| 	c #250000",
"1 	c #270000",
"2 	c #290000",
"3 	c #2B0000",
"4 	c #2D0000",
"5 	c #2F0000",
"6 	c #300000",
"7 	c #320000",
"8 	c #330000",
"9 	c #340000",
"0 	c #350000",
"a 	c #310000",
"b 	c #2E0000",
"c 	c #150000",
"d 	c #090000",
"e 	c #230000",
"f 	c #370000",
"g 	c #390000",
"h 	c #3B0000",
"i 	c #3D0000",
"j 	c #3E0000",
"k 	c #400000",
"l 	c #410000",
"m 	c #420000",
"n 	c #430000",
"o 	c #3F0000",
"p 	c #3C0000",
"q 	c #3A0000",
"r 	c #380000",
"s 	c #360000",
"t 	c #280000",
"u 	c #240000",
"v 	c #1B0000",
"w 	c #0B0000",
"x 	c #450000",
"y 	c #470000",
"z 	c #490000",
"A 	c #4B0000",
"B 	c #4C0000",
"C 	c #4D0000",
"D 	c #4E0000",
"E 	c #4F0000",
"F 	c #4A0000",
"G 	c #480000",
"H 	c #2A0000",
"I 	c #0D0000",
"J 	c #460000",
"K 	c #510000",
"L 	c #530000",
"M 	c #550000",
"N 	c #560000",
"O 	c #570000",
"P 	c #580000",
"Q 	c #590000",
"R 	c #540000",
"S 	c #520000",
"T 	c #500000",
"U 	c #2C0000",
"V 	c #440000",
"W 	c #5C0000",
"X 	c #5E0000",
"Y 	c #5F0000",
"Z 	c #610000",
"` 	c #620000",
" .	c #630000",
"..	c #600000",
"+.	c #5D0000",
"@.	c #5B0000",
"#.	c #260000",
"$.	c #640000",
"%.	c #660000",
"&.	c #680000",
"*.	c #6A0000",
"=.	c #6B0000",
"-.	c #6C0000",
";.	c #690000",
">.	c #670000",
",.	c #650000",
"'.	c #5A0000",
").	c #6E0000",
"!.	c #700000",
"~.	c #720000",
"{.	c #730000",
"].	c #740000",
"^.	c #710000",
"/.	c #6F0000",
"(.	c #6D0000",
"_.	c #760000",
":.	c #780000",
"<.	c #7A0000",
"[.	c #7B0000",
"}.	c #7C0000",
"|.	c #7D0000",
"1.	c #790000",
"2.	c #770000",
"3.	c #750000",
"4.	c #7E0000",
"5.	c #800000",
"6.	c #820000",
"7.	c #840000",
"8.	c #850000",
"9.	c #810000",
"0.	c #7F0000",
"a.	c #830000",
"b.	c #860000",
"c.	c #880000",
"d.	c #8A0000",
"e.	c #8C0000",
"f.	c #8D0000",
"g.	c #900000",
"h.	c #920000",
"i.	c #940000",
"j.	c #950000",
"k.	c #8E0000",
"l.	c #8B0000",
"m.	c #870000",
"n.	c #890000",
"o.	c #980000",
"p.	c #9A0000",
"q.	c #9C0000",
"r.	c #9D0000",
"s.	c #9E0000",
"t.	c #A00000",
"u.	c #A20000",
"v.	c #A40000",
"w.	c #A60000",
"x.	c #A50000",
"y.	c #960000",
"z.	c #910000",
"A.	c #970000",
"B.	c #A10000",
"C.	c #A80000",
"D.	c #AB0000",
"E.	c #AD0000",
"F.	c #AE0000",
"G.	c #AF0000",
"H.	c #A90000",
"I.	c #B10000",
"J.	c #B30000",
"K.	c #B60000",
"L.	c #B70000",
"M.	c #B50000",
"N.	c #B00000",
"O.	c #AC0000",
"P.	c #990000",
"Q.	c #930000",
"R.	c #8F0000",
"S.	c #9F0000",
"T.	c #B90000",
"U.	c #BC0000",
"V.	c #BE0000",
"W.	c #C00000",
"X.	c #B80000",
"Y.	c #B40000",
"Z.	c #C20000",
"`.	c #C60000",
" +	c #C80000",
".+	c #C90000",
"++	c #CA0000",
"@+	c #C70000",
"#+	c #C50000",
"$+	c #C10000",
"%+	c #BD0000",
"&+	c #B20000",
"*+	c #A30000",
"=+	c #CC0000",
"-+	c #CF0000",
";+	c #D20000",
">+	c #D30000",
",+	c #D40000",
"'+	c #D10000",
")+	c #CE0000",
"!+	c #BA0000",
"~+	c #9B0000",
"{+	c #BB0000",
"]+	c #C40000",
"^+	c #CB0000",
"/+	c #D60000",
"(+	c #D90000",
"_+	c #DC0000",
":+	c #DD0000",
"<+	c #DE0000",
"[+	c #DB0000",
"}+	c #D80000",
"|+	c #050000",
"1+	c #C30000",
"2+	c #D50000",
"3+	c #E10000",
"4+	c #E40000",
"5+	c #E60000",
"6+	c #E70000",
"7+	c #E80000",
"8+	c #E50000",
"9+	c #E30000",
"0+	c #DF0000",
"a+	c #BF0000",
"b+	c #ED0000",
"c+	c #F00000",
"d+	c #F10000",
"e+	c #F20000",
"f+	c #EE0000",
"g+	c #EA0000",
"h+	c #D00000",
"i+	c #F80000",
"j+	c #FB0000",
"k+	c #FC0000",
"l+	c #F90000",
"m+	c #EF0000",
"n+	c #E20000",
"o+	c #FE0000",
"p+	c #FF0000",
"q+	c #F60000",
"r+	c #DA0000",
"s+	c #D70000",
"t+	c #F30000",
"u+	c #F40000",
"v+	c #EB0000",
"w+	c #F70000",
"x+	c #E90000",
"y+	c #A70000",
"z+	c #CD0000",
"A+	c #EC0000",
"B+	c #FD0000",
"C+	c #E00000",
"D+	c #110000",
". . . . . . . . . . . . . . . . . . . . . . . . . . . . . . . . . . . . . . . . . . . . . . . . ",
". . . . . . . . . . . . . . . . . . . . . . . . . . . . . . . . . . . . . . . . . . . . . . . . ",
". . . + + @ @ @ @ @ @ # # # # # # # # $ $ $ $ $ $ $ $ # # # # # # # # # @ @ @ @ @ @ + + . . . . ",
". . + % & * = - ; > , ' ) ! ~ { ] ] ^ / / / / / / / / ^ ^ ] { { ~ ! ) ' , > ; - = ( _ : < . . . ",
". . + & [ } ) { / | 1 2 3 4 5 6 7 8 9 9 0 0 0 0 0 0 9 9 8 7 a 6 b 4 3 2 1 | / ] ! ' c ( d . . . ",
". . @ * > ~ e 1 3 b 7 9 f g h i j k l m m n n n n m m l k o j p q r s 9 a 5 3 t u ] v c w . . . ",
". . @ = ) e 2 b 7 s q i k n x y z A B C D D E E E D D C B F G y x m k i q s 8 5 H | ] > I . . . ",
". . @ - { t b 9 g j m J z B D K L M N O P Q Q Q Q Q P O M R S T C A G x l j q 0 6 H u ) * . . . ",
". . @ ; e U 8 q o V z C T R O Q W X Y Z ` `  . . .` Z ..X +.@.P N L T B G V k h 0 5 t ~ ( . . . ",
". . @ > #.6 r o x F E R P @.Y ` $.%.&.*.=.=.-.-.-.=.*.;.>.,. ...+.'.O L E F x k q 8 3 ^ = . . . ",
". . # ' 2 8 p V F T N '.Y  .%.;.-.).!.~.{.].].].].{.~.^./.(.*.&.$.Z +.Q M T F V j s b u [ . . . ",
". . # ) U f k G E N @.Z ,.*.(.^.]._.:.<.[.}.|.|.}.}.<.1.2.3.~./.-.&.$.Y '.M E z m q a #.c . . . ",
". . # ~ b q V B R @.Z >.-.!.].:.[.4.5.6.7.8.8.8.8.7.6.9.0.}.1._.~.).*.,...'.R C J j 9 t ; . . . ",
". . # { a j G K Q ..>.(.~.2.[.0.a.b.c.d.e.f.f.f.f.e.d.c.b.7.5.|.1.].!.=.,.Y Q S F l f H } . . . ",
". . # ^ 9 l B N X ,.-.{.:.4.6.b.d.f.g.h.i.j.j.j.j.i.h.g.k.l.m.7.0.[._.!.*.$.+.N C V q U > . . . ",
". . $ e s V T '.` *.~.1.0.7.n.k.h.j.o.p.q.r.s.s.r.q.p.o.j.h.k.d.b.9.[._./.;.` '.K y p b , . . . ",
". . $ u g y L X >.!.2.4.8.l.g.j.p.r.t.u.v.w.w.w.x.v.u.t.r.p.y.z.e.m.9.[.].(.%.+.R F o 6 ' . . . ",
". . $ #.h F O ` =.].|.7.l.h.A.q.B.x.C.D.E.F.G.G.F.E.D.C.x.B.r.o.h.f.b.5.1.~.*.Z P C l 7 v . . . ",
". . $ 1 i C '.%.!.1.6.d.z.o.s.v.H.E.I.J.K.L.L.L.L.M.J.N.O.C.v.s.P.Q.e.8.4._.(.$.@.T n 9 ) . . . ",
". . $ 2 o T +.;.].4.m.R.A.S.w.O.I.K.T.U.V.W.W.W.W.V.U.X.Y.N.D.x.S.o.z.d.6.<.^.&.X S x 0 ! . . . ",
". . $ H l S ..(.:.6.e.j.r.x.E.Y.T.V.Z.`. +.+++++.+@+#+$+%+X.&+O.x.s.y.k.b.4.].=...R y f ~ . . . ",
". . $ 3 n M  .!.}.b.z.p.*+O.Y.U.Z. +=+-+;+>+,+>+;+'+)+++`.W.!+&+D.*+~+Q.d.9.:.). .O z r { . . . ",
". . $ U x O %.{.0.d.j.S.H.&+{+]+^+'+/+(+_+:+<+:+_+[+}+,+-+ +$+T.I.C.t.A.k.7.<.!.,.Q A g { . . . ",
". . |+4 y Q &._.6.k.P.v.F.T.1+=+2+_+3+4+5+6+7+6+6+8+9+0+}+'+ +a+K.E.v.p.z.m.|.~.>.'.B q ] . . . ",
". . |+b G @.*.:.8.z.r.C.J.V.++,+0+7+b+c+d+e+e+e+d+c+f+g+9+(+-+#+{+I.C.s.i.d.0.].&.W C h ] . . . ",
". . |+5 z W -.<.m.i.t.O.X.1+h+_+g+i+j+j+k+k+k+k+k+j+j+l+m+3+2+++a+M.D.t.y.e.9._.*.+.D p ^ . . . ",
". . |+5 F +.(.}.n.y.u.G.{+@+,+n+d+o+p+p+p+p+p+p+p+p+p+p+q+6+r+)+1+X.E.u.o.f.6.2.=.X E p ^ . . . ",
". . |+5 F X ).|.d.A.v.I.%+++s+8+t+o+p+p+p+p+p+p+p+p+p+p+i+g+:+h+#+!+F.v.P.k.a.:.=.X E i ^ . . . ",
". . |+6 F X ).|.l.o.x.&+V.^+(+5+u+o+p+p+p+p+p+p+p+p+p+p+i+v+<+;+`.!+G.v.P.k.a.:.=.X E i ^ . . . ",
". . |+5 F X ).|.l.o.x.&+V.=+(+6+u+o+p+p+p+p+p+p+p+p+p+p+i+v+<+;+`.!+G.v.P.k.a.2.=.X E p ^ . . . ",
". . |+5 F +.(.}.d.A.v.I.%+^+}+5+u+o+p+p+p+p+p+p+p+p+p+p+i+v+<+'+#+T.F.*+o.f.6._.*.+.D p ^ . . . ",
". . |+b z W -.<.c.j.u.F.{+ +/+4+t+o+p+p+p+p+p+p+p+p+p+p+w+x+_+-+1+L.O.B.y.l.5.].&.W C h ] . . . ",
". . |+b y '.*.:.b.h.S.D.X.#+;+3+d+o+p+p+p+p+p+p+p+p+p+p+q+5+}+^+a+Y.C.s.Q.c.4.~.%.'.A q ] . . . ",
". . $ 4 J P >.3.6.R.~+y+J.W.z+[+A+B+o+o+o+o+o+o+o+o+o+o+d+C+;+`.!+G.v.p.g.8.<.!.$.P F g { . . . ",
". . $ 3 V M $.~.4.d.y.B.E.T.#+;+0+v+d+e+t+u+u+u+u+t+d+f+9+s+++a+Y.H.S.j.l.9.2.-.Z M G f ~ . . . ",
". . $ H l S ..(.1.8.g.~+w.I.U.`.'+r+0+n+4+8+5+8+8+9+C+_+,+^+W.K.O.u.P.R.b.}.~.&.X S x 0 ! . . . ",
". . $ t j D W &.].0.n.Q.r.y+I.!+1+++-+;+2+/+/+/+2+,+h+=+`.V.M.O.*+p.h.n.5._.(.$.Q D m 8 ) . . . ",
". . $ #.h F O  .(.:.9.l.i.r.x.E.Y.{+W.1+#+`.@+@+`.]+$+%+L.I.H.u.p.h.n.9.1.!.>.X M F j 6 ' . . . ",
". . $ e f x S W %.!.:.9.n.h.P.t.w.D.N.J.M.K.L.L.K.Y.I.E.H.*+r.y.R.m.5.:.^.;.Z P E x q 4 > . . . ",
". . # ] 7 k A M X %./._.4.8.e.h.A.q.S.u.v.w.w.w.x.*+B.s.P.i.R.n.a.}._./.&.Z Q K z k s 2 ; . . . ",
". . # ! b q V C M W $.=.^.2.|.6.m.l.k.z.Q.i.i.i.Q.h.g.f.n.8.5.[._.!.*.$.X O K F m q a | - . . . ",
". . # ' t 8 h n F K O +. .&.(.^.3.1.}.4.5.5.9.9.5.0.|.<.2.].!.=.>.` +.P S B y k q 8 3 ^ = . . . ",
". . @ c ^ H a r j n G C S N '.X Z $.%.&.;.*.=.=.*.;.>.,. ...+.Q M K C z V k h s 6 H e v * . . . ",
". . @ ( > { | 2 b 7 s g i k n x G F B C D D E E D C B A z y V m o p g s 8 5 3 t u { ' - w . . . ",
". . + < : & _ ( = - c ; > , ' v ) ! ~ ~ { { { { { ~ ~ ! ! ) v ' , > ; c - = D+( _ & : % $ . . . ",
". . . . . . . . . . . . . . . . . . . . . . . . . . . . . . . . . . . . . . . . . . . . . . . . ",
". . . . . . . . . . . . . . . . . . . . . . . . . . . . . . . . . . . . . . . . . . . . . . . . ",
". . . . . . . . . . . . . . . . . . . . . . . . . . . . . . . . . . . . . . . . . . . . . . . . "};
