/* XPM */
static char * icon_Er_xpm[] = {
"48 48 24 1",
" 	c None",
".	c #00FF00",
"+	c #05F405",
"@	c #12D212",
"#	c #494949",
"$	c #6B3B3B",
"%	c #763737",
"&	c #4E4E4E",
"*	c #545454",
"=	c #1DDC1D",
"-	c #747474",
";	c #5E5E5E",
">	c #D21212",
",	c #FF0000",
"'	c #24E324",
")	c #8F8F8F",
"!	c #7F7F7F",
"~	c #6F6F6F",
"{	c #D54646",
"]	c #F73838",
"^	c #38F738",
"/	c #E0E0E0",
"(	c #2AF92A",
"_	c #A8E8A8",
"................................................",
"................................................",
"..+@@@@@@@@@@@@@@@@@@@@@@@@@@@@@@@@@@@@@@@@@@...",
"..@##########################################...",
"..@##########################################...",
"..@##########################################...",
"..@##########################################...",
"..@##########################################...",
"..@##########################################...",
"..@##########################################...",
"..@##########################################...",
"..@##########################################...",
"..@##########################################...",
"..@##########################################...",
"..@##########################################...",
"..@##########################################...",
"..@##########################################...",
"..@##########################################...",
"..@##########################################...",
"..@##########################################...",
"..@##########################################...",
"..@##########################################...",
"..@##########################################...",
"..@##########################################...",
"..@##########################################...",
"..@##############$%%%%%%%%%%##&**************...",
"..=------------;#>,,,,,,,,,,##;--------------...",
"..=------------;#>,,,,,,,,,,##;--------------...",
"..=------------;#>,,,,,,,,,,##;--------------...",
"..=------------;#>,,,,,,,,,,##;--------------...",
"..=------------;#>,,,,,,,,,,##;--------------...",
"..=------------;#>,,,,,,,,,,##;--------------...",
"..=------------;#>,,,,,,,,,,##;--------------...",
"..'))))))))))))!~{]]]]]]]]]]~~!))))))))))))))...",
"..^//////////////////////////////////////////...",
"..^//////////////////////////////////////////...",
"..^//////////////////////////////////////////...",
"..^//////////////////////////////////////////...",
"..^//////////////////////////////////////////...",
"..^//////////////////////////////////////////...",
"..^//////////////////////////////////////////...",
"..^//////////////////////////////////////////...",
"..^//////////////////////////////////////////...",
"..^//////////////////////////////////////////...",
"..(__________________________________________...",
"................................................",
"................................................",
"................................................"};
