/* XPM */
static char * icon_Ey_xpm[] = {
"48 48 419 2",
"  	c None",
". 	c #272727",
"+ 	c #282727",
"@ 	c #2C2727",
"# 	c #302727",
"$ 	c #332727",
"% 	c #362727",
"& 	c #382727",
"* 	c #3A2727",
"= 	c #3D2727",
"- 	c #3F2727",
"; 	c #412727",
"> 	c #422727",
", 	c #442727",
"' 	c #452727",
") 	c #462727",
"! 	c #472727",
"~ 	c #482727",
"{ 	c #492727",
"] 	c #432727",
"^ 	c #3B2727",
"/ 	c #392727",
"( 	c #372727",
"_ 	c #342727",
": 	c #322727",
"< 	c #2F2727",
"[ 	c #2B2727",
"} 	c #292727",
"| 	c #3C2727",
"1 	c #4B2727",
"2 	c #572727",
"3 	c #622727",
"4 	c #6C2727",
"5 	c #752727",
"6 	c #7E2727",
"7 	c #872727",
"8 	c #8E2727",
"9 	c #942727",
"0 	c #992727",
"a 	c #9E2727",
"b 	c #A22727",
"c 	c #A52727",
"d 	c #A82727",
"e 	c #AA2727",
"f 	c #AC2727",
"g 	c #AD2727",
"h 	c #AF2727",
"i 	c #AE2727",
"j 	c #AB2727",
"k 	c #A72727",
"l 	c #A42727",
"m 	c #A02727",
"n 	c #9C2727",
"o 	c #982727",
"p 	c #932727",
"q 	c #8D2727",
"r 	c #862727",
"s 	c #7F2727",
"t 	c #772727",
"u 	c #6E2727",
"v 	c #662727",
"w 	c #5C2727",
"x 	c #512727",
"y 	c #9A2727",
"z 	c #A62727",
"A 	c #A92727",
"B 	c #B02727",
"C 	c #A12727",
"D 	c #9D2727",
"E 	c #632727",
"F 	c #802727",
"G 	c #882727",
"H 	c #8F2727",
"I 	c #962727",
"J 	c #9F2727",
"K 	c #A32727",
"L 	c #B12727",
"M 	c #582727",
"N 	c #892727",
"O 	c #902727",
"P 	c #B22727",
"Q 	c #952727",
"R 	c #4C2727",
"S 	c #642727",
"T 	c #792727",
"U 	c #822727",
"V 	c #8A2727",
"W 	c #922727",
"X 	c #B32727",
"Y 	c #B42727",
"Z 	c #9B2727",
"` 	c #812727",
" .	c #702727",
"..	c #5D2727",
"+.	c #522727",
"@.	c #4D2727",
"#.	c #592727",
"$.	c #652727",
"%.	c #7A2727",
"&.	c #832727",
"*.	c #8C2727",
"=.	c #B52727",
"-.	c #B62727",
";.	c #972727",
">.	c #912727",
",.	c #672727",
"'.	c #3E2727",
").	c #5A2727",
"!.	c #712727",
"~.	c #7C2727",
"{.	c #852727",
"].	c #B72727",
"^.	c #B82727",
"/.	c #682727",
"(.	c #5E2727",
"_.	c #4E2727",
":.	c #5B2727",
"<.	c #722727",
"[.	c #7D2727",
"}.	c #B92727",
"|.	c #BA2727",
"1.	c #532727",
"2.	c #742727",
"3.	c #BB2727",
"4.	c #BC2727",
"5.	c #BD2727",
"6.	c #BE2727",
"7.	c #692727",
"8.	c #5F2727",
"9.	c #762727",
"0.	c #8B2727",
"a.	c #C02727",
"b.	c #C12727",
"c.	c #BF2727",
"d.	c #6A2727",
"e.	c #542727",
"f.	c #502727",
"g.	c #6B2727",
"h.	c #C22727",
"i.	c #C32727",
"j.	c #C42727",
"k.	c #602727",
"l.	c #C52727",
"m.	c #C72727",
"n.	c #C82727",
"o.	c #C62727",
"p.	c #6D2727",
"q.	c #C92727",
"r.	c #CB2727",
"s.	c #CC2727",
"t.	c #CA2727",
"u.	c #7B2727",
"v.	c #CE2727",
"w.	c #CF2727",
"x.	c #D02727",
"y.	c #402727",
"z.	c #CD2727",
"A.	c #D22727",
"B.	c #D32727",
"C.	c #D42727",
"D.	c #D12727",
"E.	c #D62727",
"F.	c #D72727",
"G.	c #D82727",
"H.	c #DA2727",
"I.	c #DC2727",
"J.	c #D92727",
"K.	c #732727",
"L.	c #DD2727",
"M.	c #DF2727",
"N.	c #E02727",
"O.	c #E12727",
"P.	c #DE2727",
"Q.	c #DB2727",
"R.	c #782727",
"S.	c #E32727",
"T.	c #E42727",
"U.	c #E62727",
"V.	c #E82727",
"W.	c #E72727",
"X.	c #552727",
"Y.	c #352727",
"Z.	c #4A2727",
"`.	c #562727",
" +	c #6F2727",
".+	c #EC2727",
"++	c #ED2727",
"@+	c #EB2727",
"#+	c #EA2727",
"$+	c #F42727",
"%+	c #F02727",
"&+	c #EE2727",
"*+	c #EF2727",
"=+	c #F22727",
"-+	c #F32727",
";+	c #842727",
">+	c #4F2727",
",+	c #2E2727",
"'+	c #312727",
")+	c #29272A",
"!+	c #2A272B",
"~+	c #2C272C",
"{+	c #2D272C",
"]+	c #2F272B",
"^+	c #33272A",
"/+	c #382729",
"(+	c #2A2727",
"_+	c #3A272A",
":+	c #34272C",
"<+	c #2F272E",
"[+	c #2C2730",
"}+	c #292732",
"|+	c #282732",
"1+	c #272732",
"2+	c #272733",
"3+	c #272731",
"4+	c #27272F",
"5+	c #27272C",
"6+	c #272728",
"7+	c #272737",
"8+	c #27273B",
"9+	c #27273F",
"0+	c #272742",
"a+	c #272745",
"b+	c #272746",
"c+	c #272743",
"d+	c #2A2740",
"e+	c #2C273C",
"f+	c #2D2737",
"g+	c #282728",
"h+	c #2A2730",
"i+	c #2C2738",
"j+	c #2B273E",
"k+	c #292743",
"l+	c #272748",
"m+	c #27274C",
"n+	c #27274D",
"o+	c #27274B",
"p+	c #272736",
"q+	c #272735",
"r+	c #272754",
"s+	c #272759",
"t+	c #27275F",
"u+	c #272764",
"v+	c #27276A",
"w+	c #27276E",
"x+	c #272770",
"y+	c #272765",
"z+	c #27274E",
"A+	c #27272A",
"B+	c #272762",
"C+	c #27276F",
"D+	c #272773",
"E+	c #272772",
"F+	c #27276C",
"G+	c #272767",
"H+	c #272763",
"I+	c #27275E",
"J+	c #272753",
"K+	c #272749",
"L+	c #272729",
"M+	c #272739",
"N+	c #272750",
"O+	c #272774",
"P+	c #27277E",
"Q+	c #272787",
"R+	c #27278F",
"S+	c #272796",
"T+	c #272798",
"U+	c #272791",
"V+	c #27272D",
"W+	c #27275D",
"X+	c #27278C",
"Y+	c #272799",
"Z+	c #272794",
"`+	c #27278E",
" @	c #272786",
".@	c #27277F",
"+@	c #272777",
"@@	c #272768",
"#@	c #272760",
"$@	c #272740",
"%@	c #27273C",
"&@	c #272758",
"*@	c #27277C",
"=@	c #272788",
"-@	c #272793",
";@	c #27279E",
">@	c #2727A8",
",@	c #2727B1",
"'@	c #2727B8",
")@	c #2727BA",
"!@	c #2727A2",
"~@	c #272734",
"{@	c #27278B",
"]@	c #2727B4",
"^@	c #2727AD",
"/@	c #2727A4",
"(@	c #27279B",
"_@	c #272789",
":@	c #272775",
"<@	c #27276B",
"[@	c #27278A",
"}@	c #272797",
"|@	c #2727A3",
"1@	c #2727AE",
"2@	c #2727B9",
"3@	c #2727C4",
"4@	c #2727CE",
"5@	c #2727D9",
"6@	c #2727E2",
"7@	c #27275C",
"8@	c #27275B",
"9@	c #2727E0",
"0@	c #2727DB",
"a@	c #2727D1",
"b@	c #2727C8",
"c@	c #2727BE",
"d@	c #2727AB",
"e@	c #2727A1",
"f@	c #272781",
"g@	c #272747",
"h@	c #272755",
"i@	c #272766",
"j@	c #272776",
"k@	c #272795",
"l@	c #2727C5",
"m@	c #2727D0",
"n@	c #2727E7",
"o@	c #2727F4",
"p@	c #2727FC",
"q@	c #2727FB",
"r@	c #2727FA",
"s@	c #2727F8",
"t@	c #2727F7",
"u@	c #2727F9",
"v@	c #2727EA",
"w@	c #2727DE",
"x@	c #2727D3",
"y@	c #2727C9",
"z@	c #2727C0",
"A@	c #2727B6",
"B@	c #2727AC",
"C@	c #27274A",
"D@	c #272738",
"E@	c #272744",
"F@	c #27277D",
"G@	c #27279D",
"H@	c #2727AA",
"I@	c #2727C1",
"J@	c #2727CC",
"K@	c #2727D6",
"L@	c #2727F3",
"M@	c #2727F6",
"N@	c #2727EC",
"O@	c #2727E3",
"P@	c #2727DA",
"Q@	c #2727C7",
"R@	c #2727BD",
"S@	c #27279F",
"T@	c #272778",
"U@	c #27273A",
"V@	c #272784",
"W@	c #2727B0",
"X@	c #2727BC",
"Y@	c #2727C6",
"Z@	c #2727F0",
"`@	c #2727F5",
" #	c #2727F1",
".#	c #2727E5",
"+#	c #2727DD",
"@#	c #2727D4",
"##	c #2727C3",
"$#	c #2727A5",
"%#	c #27279A",
"&#	c #27278D",
"*#	c #27274F",
"=#	c #2727E9",
"-#	c #2727ED",
";#	c #2727EE",
">#	c #2727D7",
",#	c #2727CF",
"'#	c #272792",
")#	c #272783",
"!#	c #272751",
"~#	c #2727C2",
"{#	c #2727EB",
"]#	c #2727F2",
"^#	c #2727EF",
"/#	c #2727E4",
"(#	c #2727D8",
"_#	c #27277A",
":#	c #2727A0",
"<#	c #2727CD",
"[#	c #2727E1",
"}#	c #2727E6",
"|#	c #2727E8",
"1#	c #2727D2",
"2#	c #2727CB",
"3#	c #2727A6",
"4#	c #27273D",
"5#	c #2727BB",
"6#	c #2727B3",
"7#	c #272756",
"8#	c #2727A9",
"9#	c #27273E",
"0#	c #2727DF",
"a#	c #2727B5",
"b#	c #272790",
"c#	c #272780",
"d#	c #2727B2",
"e#	c #2727BF",
"f#	c #27276D",
"g#	c #272757",
"h#	c #272769",
"i#	c #272779",
"j#	c #272785",
"k#	c #2727B7",
"l#	c #2727AF",
". . . . . . . . . . . . . . . . . . . . . . . . . . . . . . . . . . . . . . . . . . . . . . . . ",
". . . . . . . . . . . . . . . . . . . . . . . . . . . . . . . . . . . . . . . . . . . . . . . . ",
". . + @ # $ % & * = - ; > , ' ) ) ! ~ ~ ~ { { { { { ~ ~ ~ ! ) ' , ] > ; - = ^ / ( _ : < [ . . . ",
". . } | 1 2 3 4 5 6 7 8 9 0 a b c d e f g h h h h i g j e k l m n o p q r s t u v w x ) % . . . ",
". . } | 1 2 3 4 5 6 7 8 9 y a b z A j g i h h B h h g f e k l C D o 9 q 7 s t u v w x ) % . . . ",
". . } | 1 2 E 4 t F G H I y J K k e f i h B L L L h i f j d c b a 0 9 8 7 F t u v w x ) % . . . ",
". . } | 1 M E u t F N O I n m l d j g h L L P P P L B i j e z K a y Q H G F t u v w x ) % . . . ",
". . } | R M S u T U V W o D b z e f h L P X X Y X P L B g j d l m Z I O N ` T  .v ..+.) % . . . ",
". . } = @.#.$. .%.&.*.p y J l d j i L X Y =.-.-.=.Y X L h f e z b n ;.>.V U %. .,...+.) % . . . ",
". . } '.@.).v !.~.{.8 Q n C z e i L X =.].^.^.^.^.].-.X L h j d K a 0 p *.&.%.!./.(.+.) ( . . . ",
". . } '._.:.,.<.[.7 O o a l A g L Y -.^.}.|.|.|.|.}.^.-.Y L g e c m y 9 q {.~.<./.(.1.! ( . . . ",
". . } '._.w /.2.s N W y m z j B Y ].}.3.4.5.6.6.5.4.3.}.].Y B f d b n I 8 r ~.<.7.8.1.! ( . . . ",
". . } '._...7.9.` 0.9 n K A i X ].|.4.6.a.a.b.b.a.c.6.4.}.-.X h e l a ;.O G 6 2.d.8.e.~ ( . . . ",
". . } - f.(.g.t &.8 ;.a z f P -.|.5.a.h.i.j.j.j.j.i.b.c.4.}.-.L f k m 0 W N s 5 d.k.e.~ ( . . . ",
". . } - f.8.4 T {.O 0 b A h =.|.6.b.i.l.m.n.n.n.m.o.l.i.a.4.^.Y h A b Z p V F 5 g.k.e.~ ( . . . ",
". . } - f.8.p.%.7 W n l f P ^.5.b.l.m.q.r.s.s.s.r.t.n.o.i.a.3.].L j l n 9 V F 9.g.k.e.~ ( . . . ",
". . } - x k.u u.G 9 a k h -.4.b.l.q.r.v.w.x.x.x.x.v.s.t.m.i.c.|.Y g z D Q *.F 9.g.k.e.~ ( . . . ",
". . } y.x k.u ~.N I m A P }.a.l.q.z.x.A.B.C.C.C.B.A.D.v.r.m.h.4.-.h k J Q *.F 9.g.8.e.! ( . . . ",
". . } - x k.u [.V I C j Y 4.i.q.z.A.C.E.F.G.G.G.F.E.C.A.w.t.l.c.^.B d J I 0.F 5 d.8.1.! ( . . . ",
". . } - f.k.u ~.V ;.b g -.c.o.z.A.E.G.H.I.I.I.I.I.H.J.E.B.v.n.h.|.P A J Q V s K./...+.) % . . . ",
". . } - f.8.4 u.N I b i ^.b.q.D.E.H.L.M.N.O.O.O.N.M.P.Q.F.A.s.j.3.P d a p G ~.!.v :.f., % . . . ",
". . } '._...d.R.7 Q C g ^.i.s.C.Q.N.S.T.T.T.T.T.T.T.S.N.I.E.v.l.4.P k n >.{.T p.E #._., % . . . ",
". . } = R ).,.2.&.>.a j ^.i.v.G.N.U.V.V.V.V.V.V.V.V.W.U.O.J.x.o.3.h l o *.s 2.7.k.X.R > Y.. . . ",
". . } | Z.`.E  +[.0.0 k =.h.w.Q.U..+++++.+@+#+#+@+.+++.+U.L.D.l.].j a W {.T p.S ).x { y.$ . . . ",
". . } * ! +.../.5 U >.m i 5.s.I.@+$+$+%+&+++.+.+++*+=+-+++P.v.a.L K Q G u. +v ..e.@.' = : . . . ",
". . } ( > R X.k.d.t ;+9 b P h.B.V.B.i.a.5.4.4.4.5.6.h.o.++E.j.Y z ;.G u. +$.w e.@.) y./ # . . . ",
". . + _ = ' R e...,.K.` O J g ^.P ^ . . . . . . . . . . m ].i m >.&.5 7.8.`.>+{ , - * Y.,+. . . ",
". . + # % ^ y.) R e...,.K.s V 0.!.,+. . . . . . . . . . 8.r G s 2.,...1.R ' y.^ ( _ '+,+[ . . . ",
". . . )+!+~+{+]+^+/+'.) _.`.w :.1 (+. . . . . . . . . . > `.).e.R > _+:+<+[+}+|+1+2+3+4+5+. . . ",
". . 6+3+7+8+9+0+a+b+b+b+c+d+e+f+[+g+. . . . . . . . . . h+i+j+k+l+m+n+n+m+o+l+b+c+9+8+p+4+. . . ",
". . 6+q+9+b+n+r+s+t+u+v+w+x+w+y+z+A+. . . . . . . . . . b+B+C+D+E+x+F+G+H+I+s+J+z+K+0+8+3+. . . ",
". . L+M+b+N+s+H+F+O+P+Q+R+S+T+U+w+V+. . . . . . . . . . W+X+Y+Y+Z+`+ @.@+@C+@@#@s+N+K+$@2+. . . ",
". . L+%@m+&@u+x+*@=@-@;@>@,@'@)@!@~@. . . . . . . . . . {@'@)@]@^@/@(@-@_@P+:@<@B+&@z+c+q+. . . ",
". . L+9+N+#@w+*@[@}@|@1@2@3@4@5@6@*@7@7@8@8@8@8@8@7@7@W+9@0@a@b@c@]@d@e@}@X+f@:@v+t+J+g@7+. . . ",
". . L+0+h@i@j@ @k@!@1@)@l@m@0@n@o@p@q@r@s@t@t@t@s@u@q@p@t@v@w@x@y@z@A@B@e@}@{@P+E+y+&@C@D@. . . ",
". . A+E@s+F+F@R+G@H@A@I@J@K@9@v@L@s@s@s@t@M@M@M@t@s@s@s@o@N@O@P@m@Q@R@]@H@S@-@ @T@<@7@n+U@. . . ",
". . A+b+7@x+V@k@/@W@X@Y@m@5@6@v@Z@o@`@M@M@`@`@`@`@M@`@o@ #N@.#+#@#J@##)@W@$#%#&#.@C+#@*#8+. . . ",
". . A+g@t+O+_@%#>@]@z@y@x@0@6@=#-# #L@o@o@o@o@o@o@o@L@ #;#v@.#w@>#,#Q@c@]@H@;@'#)#D+H+!#%@. . . ",
". . A+l+B+T@X+G@B@'@~#J@@#0@6@n@{#;#Z@]#]#]#]#]#]#]# #^#N@=#/#w@(#a@y@I@'@1@!@S+Q++@i@J+%@. . . ",
". . A+K+u+_#R+:#1@)@3@<#@#0@[#}#v@N@;#Z@Z@ # # # #Z@^#-#{#|#O@w@(#1#2###)@,@3#Y+{@_#@@h@4#. . . ",
". . A+C@y+*@U+!@W@5#l@<#@#P@9@/#|#{#-#;#^#Z@Z@Z@^#;#-#N@=#}#O@w@(#x@J@3@X@6#>@(@&#*@v+7#4#. . . ",
". . A+C@i@P+'#|@W@X@l@4@@#P@9@/#n@v@{#-#;#;#;#;#;#-#N@v@|#.#6@w@(#x@<#l@R@]@8#G@R+F@<@7#9#. . . ",
". . A+o+i@P+Z+/@,@X@l@4@@#P@0#O@}#=#v@N@-#;#;#;#-#-#{#v@|#.#[#+#(#x@<#Y@c@a#H@;@b#.@F+&@9#. . . ",
". . A+m+G+c#Z+/@d#X@Y@4@@#5@w@6@}#|#v@{#N@-#-#-#-#N@{#=#n@/#[#+#(#x@4@Y@e#A@d@S@U+.@f#&@9+. . . ",
". . L+0+g#h#i#j#R+T+;@/@8#^@W@6#A@'@2@)@5#X@X@X@5#)@)@'@k#a#6#l#B@>@/@S@Y+'#[@f@+@h#8@m+M+. . . ",
". . . . . . . . . . . . . . . . . . . . . . . . . . . . . . . . . . . . . . . . . . . . . . . . ",
". . . . . . . . . . . . . . . . . . . . . . . . . . . . . . . . . . . . . . . . . . . . . . . . ",
". . . . . . . . . . . . . . . . . . . . . . . . . . . . . . . . . . . . . . . . . . . . . . . . "};
