/* XPM */
static char * icon_Ex_xpm[] = {
"48 48 294 2",
"  	c None",
". 	c #272727",
"+ 	c #27272A",
"@ 	c #272728",
"# 	c #282727",
"$ 	c #2A2727",
"% 	c #27272C",
"& 	c #27273C",
"* 	c #27273A",
"= 	c #272739",
"- 	c #272738",
"; 	c #272736",
"> 	c #272735",
", 	c #272733",
"' 	c #272731",
") 	c #272730",
"! 	c #27272E",
"~ 	c #2D2727",
"{ 	c #2F2727",
"] 	c #312727",
"^ 	c #332727",
"/ 	c #342727",
"( 	c #352727",
"_ 	c #362727",
": 	c #382727",
"< 	c #392727",
"[ 	c #3A2727",
"} 	c #27272F",
"| 	c #27274B",
"1 	c #272749",
"2 	c #272748",
"3 	c #272746",
"4 	c #272745",
"5 	c #272743",
"6 	c #272742",
"7 	c #272740",
"8 	c #27273D",
"9 	c #2B2727",
"0 	c #302727",
"a 	c #3C2727",
"b 	c #3D2727",
"c 	c #402727",
"d 	c #422727",
"e 	c #432727",
"f 	c #452727",
"g 	c #462727",
"h 	c #482727",
"i 	c #492727",
"j 	c #272757",
"k 	c #272755",
"l 	c #272753",
"m 	c #272752",
"n 	c #272750",
"o 	c #27274E",
"p 	c #27274D",
"q 	c #27273F",
"r 	c #2C2727",
"s 	c #4B2727",
"t 	c #4D2727",
"u 	c #4E2727",
"v 	c #502727",
"w 	c #522727",
"x 	c #532727",
"y 	c #272763",
"z 	c #272761",
"A 	c #27275F",
"B 	c #27275D",
"C 	c #27275B",
"D 	c #272759",
"E 	c #2D2728",
"F 	c #552727",
"G 	c #572727",
"H 	c #592727",
"I 	c #5B2727",
"J 	c #5D2727",
"K 	c #5F2727",
"L 	c #272734",
"M 	c #27276D",
"N 	c #27276B",
"O 	c #272769",
"P 	c #272767",
"Q 	c #272765",
"R 	c #2E2728",
"S 	c #612727",
"T 	c #632727",
"U 	c #652727",
"V 	c #672727",
"W 	c #272778",
"X 	c #272776",
"Y 	c #272774",
"Z 	c #272771",
"` 	c #27276F",
" .	c #2F2728",
"..	c #692727",
"+.	c #6B2727",
"@.	c #6D2727",
"#.	c #6F2727",
"$.	c #712727",
"%.	c #272782",
"&.	c #27277F",
"*.	c #27277D",
"=.	c #27277B",
"-.	c #742727",
";.	c #762727",
">.	c #782727",
",.	c #7B2727",
"'.	c #7D2727",
").	c #27278B",
"!.	c #272789",
"~.	c #272786",
"{.	c #272784",
"].	c #7F2727",
"^.	c #822727",
"/.	c #842727",
"(.	c #272794",
"_.	c #272792",
":.	c #272790",
"<.	c #27278D",
"[.	c #862727",
"}.	c #892727",
"|.	c #8B2727",
"1.	c #27279C",
"2.	c #27279A",
"3.	c #272798",
"4.	c #272796",
"5.	c #8D2727",
"6.	c #902727",
"7.	c #922727",
"8.	c #942727",
"9.	c #2727A4",
"0.	c #2727A2",
"a.	c #2727A0",
"b.	c #27279E",
"c.	c #962727",
"d.	c #982727",
"e.	c #9A2727",
"f.	c #9C2727",
"g.	c #2727AB",
"h.	c #2727AA",
"i.	c #2727A8",
"j.	c #2727A6",
"k.	c #9E2727",
"l.	c #A02727",
"m.	c #2727B2",
"n.	c #2727B1",
"o.	c #2727AF",
"p.	c #2727AD",
"q.	c #A42727",
"r.	c #A62727",
"s.	c #A82727",
"t.	c #2727B7",
"u.	c #2727B6",
"v.	c #2727B4",
"w.	c #A22727",
"x.	c #AB2727",
"y.	c #AD2727",
"z.	c #2727BC",
"A.	c #2727BA",
"B.	c #2727B9",
"C.	c #B12727",
"D.	c #B22727",
"E.	c #2727C2",
"F.	c #2727C0",
"G.	c #2727BF",
"H.	c #2727BD",
"I.	c #AF2727",
"J.	c #B62727",
"K.	c #B72727",
"L.	c #B92727",
"M.	c #2727C4",
"N.	c #2727C6",
"O.	c #2727C7",
"P.	c #2727C3",
"Q.	c #28273A",
"R.	c #AA2727",
"S.	c #BA2727",
"T.	c #BD2727",
"U.	c #BF2727",
"V.	c #BC2727",
"W.	c #2727C8",
"X.	c #2727CA",
"Y.	c #2727CB",
"Z.	c #2727CC",
"`.	c #2A273A",
" +	c #B42727",
".+	c #C02727",
"++	c #C32727",
"@+	c #C42727",
"#+	c #C22727",
"$+	c #2727CD",
"%+	c #2727CF",
"&+	c #2727D0",
"*+	c #2727D1",
"=+	c #2727D2",
"-+	c #2A2739",
";+	c #CA2727",
">+	c #CB2727",
",+	c #CC2727",
"'+	c #C72727",
")+	c #C62727",
"!+	c #2727D3",
"~+	c #2727D4",
"{+	c #2727D5",
"]+	c #2727D7",
"^+	c #2727D8",
"/+	c #C82727",
"(+	c #D02727",
"_+	c #D32727",
":+	c #D12727",
"<+	c #CF2727",
"[+	c #2727D6",
"}+	c #2727D9",
"|+	c #2727DB",
"1+	c #2727DD",
"2+	c #2727DF",
"3+	c #2727E0",
"4+	c #2A2736",
"5+	c #D42727",
"6+	c #DB2727",
"7+	c #DC2727",
"8+	c #D92727",
"9+	c #D72727",
"0+	c #D22727",
"a+	c #CD2727",
"b+	c #2727E2",
"c+	c #2727E5",
"d+	c #2727E8",
"e+	c #2727EA",
"f+	c #2A2733",
"g+	c #E42727",
"h+	c #E72727",
"i+	c #E52727",
"j+	c #E22727",
"k+	c #DF2727",
"l+	c #D82727",
"m+	c #D52727",
"n+	c #2727DE",
"o+	c #2727E1",
"p+	c #2727E3",
"q+	c #2727E6",
"r+	c #2727ED",
"s+	c #2727F2",
"t+	c #2727F7",
"u+	c #28272C",
"v+	c #F72727",
"w+	c #F12727",
"x+	c #EB2727",
"y+	c #E32727",
"z+	c #E02727",
"A+	c #2727E9",
"B+	c #2727F0",
"C+	c #2727F5",
"D+	c #2727FA",
"E+	c #FA2727",
"F+	c #F52727",
"G+	c #EF2727",
"H+	c #E62727",
"I+	c #2727DA",
"J+	c #2727DC",
"K+	c #2727E4",
"L+	c #2727EB",
"M+	c #2727EE",
"N+	c #2727F8",
"O+	c #F42727",
"P+	c #F02727",
"Q+	c #EC2727",
"R+	c #E82727",
"S+	c #E12727",
"T+	c #D62727",
"U+	c #2727EF",
"V+	c #2727F4",
"W+	c #2727F6",
"X+	c #F32727",
"Y+	c #ED2727",
"Z+	c #EA2727",
"`+	c #DD2727",
" @	c #2727EC",
".@	c #EE2727",
"+@	c #2727F3",
"@@	c #F22727",
"#@	c #F62727",
"$@	c #DA2727",
"%@	c #2727FC",
"&@	c #27272D",
"*@	c #27272B",
"=@	c #FC2727",
"-@	c #2A272F",
";@	c #2B2733",
">@	c #2B2735",
",@	c #2B2736",
"'@	c #2A2734",
")@	c #3F2727",
"!@	c #2A2730",
"~@	c #28272E",
". . . . . . . . . . . . . . . . . . . . . . . . . . . . . . . . . . . . . . . . . . . . . . . . ",
". . . . . . . . . . . . . . . . . . . . . . . . . . . . . . . . . . . . . . . . . . . . . . . . ",
". . . + + + + + + + + + + + @ @ @ @ @ @ @ @ . . . # # # # # # # # $ $ $ $ $ $ $ $ $ $ $ $ . . . ",
". . % & & & & & * * * = = - - ; > > , ' ) ! % $ ~ { ] ^ / ( _ _ : : : < < < [ [ [ [ [ [ [ . . . ",
". . } | | | | 1 1 1 2 3 3 4 5 6 7 8 & = > , ! 9 0 / : [ a b c d e e f g g g h h h h i i i . . . ",
". . ) j j j j k k l l m n o p 1 2 4 6 q * > ) r / < a c e g h i s t u v v w w x x x x x x . . . ",
". . , y y y z z A A B C D j k m o | 2 5 q = ' E _ a d f i t u w x F G H I I J J J J K K K . . . ",
". . L M M M N N N O P Q y z B D k m p 2 5 & , R < c f s u x G H J K S T T U V V V V V V V . . . ",
". . > W W W X X Y Y Z ` N O Q z B j m p 3 q L  .a e i v x H J S U V ..+.@.#.#.#.#.#.$.$.$.. . . ",
". . - %.%.%.%.&.*.*.=.W Y Z M O y A j n 1 7 > 0 b g u x I K U ..+.#.$.-.;.>.>.>.>.>.,.'.'.. . . ",
". . = ).).).).).!.~.{.%.*.=.X ` N Q B k p 5 ; ] c i w H S V +.#.-.>.,.'.'.].^.^.^.^./././.. . . ",
". . * (.(.(.(.(._.:.<.).~.%.*.W Z N y C n 3 - ^ e u G K V @.-.>.'.]./.[.[.}.|.|.|.|.|.|.|.. . . ",
". . & 1.1.1.1.1.2.3.4.(.:.).~.%.=.Z O A l 2 = ( g w J U @.-.,.^./.}.|.5.6.7.7.8.8.8.8.8.8.. . . ",
". . 8 9.9.9.9.0.a.a.b.1.3.(.:.!.%.W ` Q D | = _ i G S +.-.'./.}.5.7.8.c.d.d.e.e.e.f.f.f.f.. . . ",
". . 8 g.g.g.g.h.i.i.j.9.a.1.3._.).%.X O B p * < t I V -.'.[.|.7.c.e.f.k.k.l.l.l.l.l.l.l.l.. . . ",
". . q m.m.m.n.o.o.o.p.g.i.9.a.2._.!.*.` z n * a v S @.,.[.5.8.e.k.l.q.q.r.s.s.s.s.s.s.s.s.. . . ",
". . 7 t.t.u.u.u.u.u.v.m.o.g.i.0.2._.{.X Q l * b x V ;./.6.c.k.w.r.s.x.x.x.y.y.y.y.y.y.y.y.. . . ",
". . 6 z.z.z.z.z.z.z.A.B.t.v.o.h.0.3.<.*.N k * c H +.'.|.d.l.r.x.y.C.D.D.D.D.D.D.D.D.D.C.C.. . . ",
". . 5 E.E.E.E.E.E.E.F.G.H.z.t.m.g.a.(.{.` D * e J -.[.c.l.s.I.D.J.K.L.L.L.L.K.K.K.J.J.J.J.. . . ",
". . 4 M.M.N.N.N.O.O.O.N.M.P.G.A.v.h.1.).Y C Q.g T ,.6.k.R.D.K.S.T.U.U.U.U.T.V.V.V.S.S.S.L.. . . ",
". . 4 W.X.X.X.X.Y.Z.Z.Z.Y.X.O.P.z.m.9._.W B `.i V ^.c.s. +V..+++@+@+@+@+++#+#+.+U.U.T.T.T.. . . ",
". . 3 Z.Z.$+$+%+%+&+*+=+=+*+&+Z.N.A.g.4.=.A -+s ..[.k.C.T.@+;+>+,+>+>+;+'+)+@+++++#+.+.+.+. . . ",
". . 2 &+&+&+*+=+!+~+{+]+]+^+^+{+&+M.m.3.=.B -+s +.}.r.S./+(+_+_+_+:+(+<+,+;+/+'+)+@+++++++. . . ",
". . 2 =+=+!+~+{+[+^+}+|+1+2+3+3+|+$+v.(.Y j 4+h U [.s.++5+6+7+6+8+9+5+0+(+a+,+;+/+'+)+)+@+. . . ",
". . 1 ~+~+{+[+]+}+|+1+3+b+c+d+e+d+]+p.%.z | f+c G $.f.>+g+h+i+j+k+6+l+m+_+:+<+,+;+/+'+'+'+. . . ",
". . 1 {+[+]+^+}+|+n+o+p+q+e+r+s+t+%+C 4 * L u+0 : c w f.v+w+x+h+y+z+7+l+m+_+(+<+,+>+;+/+/+. . . ",
". . 1 [+]+^+}+|+1+3+b+c+A+r+B+C+D+M . . . . . . . . . . E+F+G+x+H+j+k+6+9+5+0+(+a+,+;+;+/+. . . ",
". . 1 ]+]+}+I+J+2+b+K+d+L+M+s+C+N+Q . . . . . . . . . . v+O+P+Q+R+g+S+7+8+T+_+(+<+,+>+;+;+. . . ",
". . 1 ]+^+}+|+1+2+b+c+d+L+U+s+V+W+z . . . . . . . . . . F+X+P+Y+Z+i+j+`+8+T+_+:+<+,+>+;+;+. . . ",
". . 1 ]+]+}+I+1+2+b+c+A+ @U+s+V+W+A . . . . . . . . . . O+X+w+.@Z+H+j+`+8+T+_+:+a+,+;+;+/+. . . ",
". . 1 [+]+^+I+J+2+b+c+d+ @U+s+C+W+z . . . . . . . . . . F+O+w+.@Z+i+j+`+8+m+0+(+a+>+;+/+'+. . . ",
". . 1 {+{+]+^+|+1+o+K+d+L+U++@W+N+Q . . . . . . . . . . v+F+@@.@Z+i+S+7+l+5+:+<+>+;+'+'+)+. . . ",
". . 2 !+!+{+[+}+|+2+b+q+e+M+s+t+D+N . . . . . . . . . . E+#@@@Y+R+y+k+$@T+0+<+,+;+'+)+@+@+. . . ",
". . 2 &+*+=+~+[+}+J+3+p+d+L+B+W+%@0.) &@*@+ @ $ 9 r { d =@#@P+Z+i+S+7+9+_+(+,+/+)+@+++#+.+. . . ",
". . 3 Z.$+%+*+!+{+^+J+2+p+d+ @B++@p+a.M m 6 -@a s T 5._+w+G+x+i+S+7+9+_+(+,+/+)+++.+U.T.T.. . . ",
". . 4 W.X.X.Z.%+*+!+[+I+1+o+K+q+K+[+t.:.N n ;@g S ^.R.a+z+g+j+k+$@T+_+<+>+'+++.+T.V.S.L.L.. . . ",
". . 5 E.P.M.N.W.Y.$+&+!+[+^+I+}+{+X.v.3.X j >@s +.|.R.#+(+T+9+m+_+(+,+/+@+.+T.S.K.J. +D.D.. . . ",
". . 6 z.z.H.G.E.P.N.W.Y.$+%+%+$+O.z.g.(.X D ,@t +.}.w.J.#+/+>+>+;+)+++.+V.L.J. +C.I.y.x.x.. . . ",
". . 7 m.v.u.u.B.A.z.G.F.E.P.E.G.B.o.a.).Z j ,@s V ].c.s.D.S.T.U.T.V.L.J.D.C.y.R.s.r.q.q.w.. . . ",
". . 8 i.h.h.g.p.o.n.m.v.u.u.v.n.h.a._.&.O l >@h K ;.}.d.q.R.I.C.C.I.y.R.s.q.w.l.f.e.e.d.d.. . . ",
". . * 2.1.1.b.a.a.0.9.j.j.j.0.a.3.:.%.Z z o '@e G ..,.[.7.d.k.l.l.l.k.f.d.c.8.7.6.5.|.|.|.. . . ",
". . - !.).).).<.:.:._._._._.:.).{.*.Z Q j 2 f+)@v J +.-.'./.}.|.5.|.|.}.[./.^.].'.'.,.,.,.. . . ",
". . > Y Y Y Y X X W W W W W X Z M P A j p 6 !@[ h w I T ..@.$.-.-.-.-.$.$.#.@.+.+.....V V . . . ",
". . ' C C C C C B B B B B B C D k m p 2 6 = ~@( b f i u w F G H I I H H G G F F x x w w w . . . ",
". . *@- - - - - - - - - - - - - ; > L , ) ! + r { ] ^ / ( _ _ : : : : : : _ _ _ _ ( ( ( ( . . . ",
". . . . . . . . . . . . . . . . . . . . . . . . . . . . . . . . . . . . . . . . . . . . . . . . ",
". . . . . . . . . . . . . . . . . . . . . . . . . . . . . . . . . . . . . . . . . . . . . . . . ",
". . . . . . . . . . . . . . . . . . . . . . . . . . . . . . . . . . . . . . . . . . . . . . . . "};
