/* XPM */
static char * icon_U_xpm[] = {
"48 48 140 2",
"  	c None",
". 	c #464646",
"+ 	c #474747",
"@ 	c #484848",
"# 	c #494949",
"$ 	c #4A4A4A",
"% 	c #4B4B4B",
"& 	c #4C4C4C",
"* 	c #4D4D4D",
"= 	c #4E4E4E",
"- 	c #4F4F4F",
"; 	c #515151",
"> 	c #505050",
", 	c #545454",
"' 	c #535353",
") 	c #525252",
"! 	c #555555",
"~ 	c #565656",
"{ 	c #585858",
"] 	c #595959",
"^ 	c #5A5A5A",
"/ 	c #5C5C5C",
"( 	c #5E5E5E",
"_ 	c #606060",
": 	c #626262",
"< 	c #666666",
"[ 	c #696969",
"} 	c #6E6E6E",
"| 	c #727272",
"1 	c #7A7A7A",
"2 	c #777777",
"3 	c #6C6C6C",
"4 	c #686868",
"5 	c #656565",
"6 	c #6B6B6B",
"7 	c #717171",
"8 	c #7D7D7D",
"9 	c #707070",
"0 	c #616161",
"a 	c #5F5F5F",
"b 	c #575757",
"c 	c #757575",
"d 	c #767676",
"e 	c #818181",
"f 	c #878787",
"g 	c #8D8D8D",
"h 	c #949494",
"i 	c #9C9C9C",
"j 	c #A6A6A6",
"k 	c #B3B3B3",
"l 	c #C4C4C4",
"m 	c #D9D9D9",
"n 	c #E8E8E8",
"o 	c #DADADA",
"p 	c #CECECE",
"q 	c #C7C7C7",
"r 	c #C3C3C3",
"s 	c #C2C2C2",
"t 	c #C5C5C5",
"u 	c #CBCBCB",
"v 	c #D5D5D5",
"w 	c #E4E4E4",
"x 	c #DDDDDD",
"y 	c #C6C6C6",
"z 	c #B4B4B4",
"A 	c #9B9B9B",
"B 	c #929292",
"C 	c #8A8A8A",
"D 	c #848484",
"E 	c #7E7E7E",
"F 	c #797979",
"G 	c #6F6F6F",
"H 	c #6A6A6A",
"I 	c #747474",
"J 	c #838383",
"K 	c #898989",
"L 	c #909090",
"M 	c #999999",
"N 	c #A2A2A2",
"O 	c #ADADAD",
"P 	c #BABABA",
"Q 	c #CCCCCC",
"R 	c #C1C1C1",
"S 	c #C0C0C0",
"T 	c #CACACA",
"U 	c #CDCDCD",
"V 	c #BBBBBB",
"W 	c #AEAEAE",
"X 	c #989898",
"Y 	c #8F8F8F",
"Z 	c #888888",
"` 	c #7B7B7B",
" .	c #676767",
"..	c #6D6D6D",
"+.	c #7F7F7F",
"@.	c #858585",
"#.	c #8C8C8C",
"$.	c #9D9D9D",
"%.	c #B0B0B0",
"&.	c #B8B8B8",
"*.	c #BEBEBE",
"=.	c #BFBFBF",
"-.	c #BDBDBD",
";.	c #BCBCBC",
">.	c #B9B9B9",
",.	c #B1B1B1",
"'.	c #A7A7A7",
").	c #646464",
"!.	c #636363",
"~.	c #979797",
"{.	c #A0A0A0",
"].	c #B6B6B6",
"^.	c #B7B7B7",
"/.	c #AFAFAF",
"(.	c #A8A8A8",
"_.	c #A1A1A1",
":.	c #828282",
"<.	c #7C7C7C",
"[.	c #8B8B8B",
"}.	c #ABABAB",
"|.	c #B2B2B2",
"1.	c #ACACAC",
"2.	c #868686",
"3.	c #737373",
"4.	c #5D5D5D",
"5.	c #808080",
"6.	c #8E8E8E",
"7.	c #959595",
"8.	c #A5A5A5",
"9.	c #A9A9A9",
"0.	c #AAAAAA",
"a.	c #9E9E9E",
"b.	c #939393",
"c.	c #5B5B5B",
"d.	c #A4A4A4",
"e.	c #A3A3A3",
"f.	c #9F9F9F",
"g.	c #969696",
"h.	c #919191",
"i.	c #787878",
". . . . . . . . . . . . . . . . . . . . . . . . . . . . . . . . . . . . . . . . . . . . . . . . ",
". . . . . . . . . . . . . . . . . . . . . . . . . . . . . . . . . . . . . . . . . . . . . . . . ",
". . . . . . . . . . . . . . . . . . . . . . . . . . . . . . . . . . . . . . . . . . . . . . . . ",
". . . . . . . . + + + + + @ @ @ @ @ @ @ @ @ @ @ @ @ @ @ @ @ @ @ @ + + + + + + . . . . . . . . . ",
". . . . . . . + + + + + + @ @ @ @ @ @ @ @ @ @ @ @ @ @ @ @ @ @ @ @ @ + + + + + + . . . . . . . . ",
". . . . . . . + + + + + + @ @ @ @ @ @ @ @ @ @ @ @ @ @ @ @ @ @ @ @ @ + + + + + + . . . . . . . . ",
". . . . . . + + + + + + @ @ @ @ @ @ @ @ @ @ @ @ @ @ @ @ @ @ @ @ @ @ + + + + + + + . . . . . . . ",
". . . . + + + + + + + + @ @ @ @ @ @ @ @ @ @ @ @ @ @ @ @ @ @ @ @ @ @ @ + + + + + + + . . . . . . ",
". . . + + + + + + + + @ @ @ @ @ @ @ @ @ # # # # # # @ @ @ @ @ @ @ @ @ @ + + + + + + + + + . . . ",
". . . + + + + + + + @ @ @ @ @ @ @ @ # # # # # # # # # # @ @ @ @ @ @ @ @ + + + + + + + + + . . . ",
". . . + + + + + @ @ @ @ @ @ @ @ @ # # # # # # # # # # # # @ @ @ @ @ @ @ @ @ + + + + + + + . . . ",
". . . + + + @ @ @ @ @ @ @ @ @ # # # # # # # # # # # # # # # # @ @ @ @ @ @ @ @ + + + + + + . . . ",
". . . @ @ @ @ @ @ @ @ @ @ # # # # # # # # # # # # # # # # # # # @ @ @ @ @ @ @ @ @ + + + + . . . ",
". . . @ @ @ @ @ @ @ @ @ # # # # # # # # # # # # # # # # # # # # # # @ @ @ @ @ @ @ @ @ @ @ . . . ",
". . . @ @ @ @ @ @ # # # # # # # # # $ $ $ $ $ $ $ $ $ # # # # # # # # @ @ @ @ @ @ @ @ @ @ . . . ",
". . . @ @ @ # # # # # # # # # $ $ $ $ $ $ $ $ $ $ $ $ $ $ # # # # # # # # @ @ @ @ @ @ @ @ . . . ",
". . + # # # # # # # # # # $ $ $ $ $ $ $ $ $ $ $ $ $ $ $ $ $ $ $ # # # # # # # @ @ @ @ @ @ . . . ",
". . + # # # # # # # # $ $ $ $ $ $ $ $ % % % % % % $ $ $ $ $ $ $ $ # # # # # # # # @ @ @ @ . . . ",
". . + # # # # # $ $ $ $ $ $ $ % % % % % % % % % % % % % % $ $ $ $ $ $ # # # # # # # # # # . . . ",
". . + # # $ $ $ $ $ $ $ $ % % % % % % & & & & % % % % % % % % $ $ $ $ $ # # # # # # # # # . . . ",
". . + $ $ $ $ $ $ $ $ % % % % & & & & & & & & & & & & & & % % % % $ $ $ $ $ # # # # # # # . . . ",
". . + $ $ $ $ $ $ % % % % & & & & * * * * & & & & & & & & & & % % % $ $ $ $ $ # # # # # # . . . ",
". . + $ $ $ $ $ % % % % & & * * * = = * * * * * * * * * * * & & % % % $ $ $ $ $ $ # # # # . . . ",
". . + $ $ $ % % % % % & & * * = - - - = = = * = = = = = = = * & & % % % $ $ $ $ $ $ # # # . . . ",
". . + % % % % % % % & & * * = - ; ; > - = = = = = - > ; > - = * & & % % % $ $ $ $ $ $ $ $ . . . ",
". . + % % % % % % & & * * = - > , ' - * & & & & & * = ; , > - - = * & & & % % % % $ $ $ $ . . . ",
". . @ = = = = - - > > ; ) ' ! , ' $ . . . . . . . . . . ' ; ) ' ; > - - = = * * * & & & & . . . ",
". . @ = = = - - - > > ; ) , ! , ) # . . . . . . . . . . ; > ) ' ) ; > - = = * * * & & & & . . . ",
". . @ = = = - - - > ; ) ) , ! ' ; # . . . . . . . . . . > > ) ' ) ; > - = = * * * & & & & . . . ",
". . @ = = = - - - > ; ) ' , ! ' ; # . . . . . . . . . . > > ) ' ) ; > - = = * * * & & & & . . . ",
". . @ = = = = - - > ; ) ' , ! ' ; # . . . . . . . . . . > > ) ' ) ; > - = = * * * & & & & . . . ",
". . @ = = = = - - > ; ) ' , ~ , ) # . . . . . . . . . . ; > ) , ) ; > - = = * * & & & & & . . . ",
". . @ * * = = = - > > ; ) , ~ ! , $ . . . . . . . . . . ' ) ' , ) ; > - = = * * & & & & & . . . ",
". . $ { { { ] ^ / ( _ : < [ } | 1 2 3 4 < 5 5 5 < 4 6 7 8 9 3 [ 5 0 a / ^ { b ~ ! ! , ' ' . . . ",
". . ) c d 2 1 8 e f g h i j k l m n o p q r s s t u v w x y z j A B C D E F c 7 G 3 H H [ . . . ",
". . ; 7 | I d 1 E J K L M N O P y p Q q r R S S s t T U q V W N X Y Z e ` d | G 3 H 4  . .. . . ",
". . > ..} 9 | d 1 +.@.#.h $.j %.&.*.S =.-.;.;.;.;.*.=.*.>.,.'.$.h #.@.E F I 9 3 [  .< ).!.. . . ",
". . - 4 [ 6 } | d ` e Z Y ~.{.'.W z ].&.&.&.&.&.&.^.^.z /.(._.X L K :.<.d 7 ..[ < ).: _ _ . . . ",
". . = ).5  .H } | 2 8 D [.B M _.'.}./.,.|.|.|.|.|.,./.1.(.N A h g 2.+.F 3.G H  .!._ a 4.4.. . . ",
". . & a _ !.< H } I F 5.f 6.7.A _.8.9.1.O W W W O 1.0.'.N $.~.L C J <.d 7 3 4 )._ ( / ^ ] . . . ",
". . % ^ / ( : < 6 9 d 8 J C L ~.i _.8.'.9.0.}.0.0.(.j N a.M b.g f 5.1 I G H 5 0 ( c.{ b ~ . . . ",
". . $ ~ { ^ ( !.4 ..3.1 5.f g b.M $._.d.j '.(.(.'.8.e.f.A g.h.[.@.E i.| ..4 !.a c.{ ! ' ) . . . ",
". . # ; , b c._ < 6 7 i.E @.[.h.g.A f.N d.8.j 8.d.e.{.$.M h Y K J 8 2 7 6  .0 4.] ~ ' > = . . . ",
". . + * > , ] ( ).H 9 d 8 D C Y 7.M $.{.N d.d.d.e.N f.A X b.g Z :.<.d 9 H < _ / { , > * % . . . ",
". . . # & > , { / _ 5 H } I i.8 e D f K [.#.#.#.[.C Z @.:.+.` 2 | } H 5 0 ( ] ~ ' > * $ @ . . . ",
". . . . . . . . . . . . . . . . . . . . . . . . . . . . . . . . . . . . . . . . . . . . . . . . ",
". . . . . . . . . . . . . . . . . . . . . . . . . . . . . . . . . . . . . . . . . . . . . . . . ",
". . . . . . . . . . . . . . . . . . . . . . . . . . . . . . . . . . . . . . . . . . . . . . . . "};
