/* XPM */
static char * RectInCirc_xpm[] = {
"64 64 55 1",
" 	c None",
".	c #FFFFFF",
"+	c #D5FFD5",
"@	c #9DFF9D",
"#	c #6EFF6E",
"$	c #47FF47",
"%	c #28FF28",
"&	c #12FF12",
"*	c #05FF05",
"=	c #00FF00",
"-	c #BBFFBB",
";	c #69FF69",
">	c #1FFF1F",
",	c #F7FFF7",
"'	c #8CFF8C",
")	c #88FF88",
"!	c #AEFFAE",
"~	c #42FF42",
"{	c #7BFF7B",
"]	c #AAFFAA",
"^	c #CFFFCF",
"/	c #E9FFE9",
"(	c #F9FFF9",
"_	c #35FF35",
":	c #4CFF4C",
"<	c #A5FFA5",
"[	c #F4FFF4",
"}	c #66FF66",
"|	c #D4FFD4",
"1	c #B3FFB3",
"2	c #95FF95",
"3	c #CAFFCA",
"4	c #3DFF3D",
"5	c #FF0000",
"6	c #1EFF1E",
"7	c #09FF09",
"8	c #02FF02",
"9	c #84FF84",
"0	c #BDFFBD",
"a	c #08FF08",
"b	c #5AFF5A",
"c	c #2AFF2A",
"d	c #99FF99",
"e	c #30FF30",
"f	c #6AFF6A",
"g	c #D7FFD7",
"h	c #C2FFC2",
"i	c #0FFF0F",
"j	c #27FF27",
"k	c #59FF59",
"l	c #14FF14",
"m	c #07FF07",
"n	c #68FF68",
"o	c #06FF06",
"p	c #5FFF5F",
"................................................................",
"................................................................",
"........................+@#$%&*=*&%$#@+.........................",
".....................-;>===============>;-......................",
"..................,'%=====================%',...................",
".................)&=========================&)..................",
"...............!%=============================%!................",
"..............;===========~{]^/(.(/^]{~=========;...............",
"............+_=========:<[.............[<:=======_+.............",
"...........-&========}|...................|}======&-............",
"..........1========:^.......................^:======1...........",
".........-========2...........................2======-..........",
"........+&======%3.............................3%====&+.........",
"........_======4/.............................../4====_.........",
".......;======4[.................................[4====;........",
"......!======%/.................................../%====!.......",
"......%======3.....................................3====%.......",
".....)======2.......................................2====)......",
"....,&=====:.........................................:===&,.....",
"....'======^.........................................^===='.....",
"....%=====}...........................................}===%.....",
"...-======|...........................................|====-....",
"...;=====:.............................................:===;....",
"...>=====<.............................................<===>....",
"..+======[.............................................[====+...",
"..@=====~...............................................~===@...",
"..#====={...............................................{===#...",
"..$=====]........5555555555555555555555555555555........]===$...",
"..%=====^........5555555555555555555555555555555........^===6...",
"..&=====/........5555555555555555555555555555555......../===7...",
"..*=====(........5555555555555555555555555555555........(===8...",
"..======.........5555555555555555555555555555555.........====...",
"..*=====(........5555555555555555555555555555555........(====...",
"..&=====/........5555555555555555555555555555555......../====...",
"..%=====^........5555555555555555555555555555555........^====...",
"..$=====]........5555555555555555555555555555555........]===8...",
"..#====={........5555555555555555555555555555555........{===7...",
"..@=====~........5555555555555555555555555555555........~===6...",
"..+======[.............................................[====$...",
"...>=====<.............................................<====9...",
"...;=====:.............................................:====0...",
"...-======|...........................................|====a....",
"....%=====}...........................................}====b....",
"....'======^.........................................^=====1....",
"....,&=====:.........................................:====c.....",
".....)======2.......................................2=====d.....",
"......%======3.....................................3=====e......",
"......!======%/.................................../%=====1......",
".......;======4[.................................[4=====f.......",
"........_======4/.............................../4=====_........",
"........+&======%3.............................3%=====&g........",
".........-========2...........................2======ah.........",
"..........1========:^.......................^:======ih..........",
"...........-&========}|...................|}=======jg...........",
"............+_=========:<[.............[<:========k.............",
"..............;===========~{]^/(.(/^]{~=========l1..............",
"...............!%=============================mn................",
".................)&=========================op..................",
"..................,'%=====================6',...................",
".....................-;>===============>;-......................",
"........................+@#$%&*=*&%$#@+.........................",
"................................................................",
"................................................................",
"................................................................"};
