/* XPM */
static char * RectInRect_xpm[] = {
"64 64 4 1",
" 	c None",
".	c #FFFFFF",
"+	c #00FF00",
"@	c #FF0000",
"................................................................",
"................................................................",
"................................................................",
"................................................................",
"................................................................",
"................................................................",
"................................................................",
"................................................................",
"................................................................",
"................................................................",
"...++++++++++++++++++++++++++++++++++++++++++++++++++++++++++...",
"...++++++++++++++++++++++++++++++++++++++++++++++++++++++++++...",
"...++++++++++++++++++++++++++++++++++++++++++++++++++++++++++...",
"...++++++++++++++++++++++++++++++++++++++++++++++++++++++++++...",
"...++++..................................................++++...",
"...++++..................................................++++...",
"...++++..................................................++++...",
"...++++..................................................++++...",
"...++++..................................................++++...",
"...++++..................................................++++...",
"...++++..................................................++++...",
"...++++..................................................++++...",
"...++++..................................................++++...",
"...++++..................................................++++...",
"...++++..................................................++++...",
"...++++..................................................++++...",
"...++++..................................................++++...",
"...++++..................................................++++...",
"...++++..................................................++++...",
"...++++..................................................++++...",
"...++++..................................................++++...",
"...++++..................................................++++...",
"...++++........@@@@@@@@@@@@@@@@@@@@@@@@@@@...............++++...",
"...++++........@@@@@@@@@@@@@@@@@@@@@@@@@@@...............++++...",
"...++++........@@@@@@@@@@@@@@@@@@@@@@@@@@@...............++++...",
"...++++........@@@@@@@@@@@@@@@@@@@@@@@@@@@...............++++...",
"...++++........@@@@@@@@@@@@@@@@@@@@@@@@@@@...............++++...",
"...++++........@@@@@@@@@@@@@@@@@@@@@@@@@@@...............++++...",
"...++++........@@@@@@@@@@@@@@@@@@@@@@@@@@@...............++++...",
"...++++........@@@@@@@@@@@@@@@@@@@@@@@@@@@...............++++...",
"...++++........@@@@@@@@@@@@@@@@@@@@@@@@@@@...............++++...",
"...++++........@@@@@@@@@@@@@@@@@@@@@@@@@@@...............++++...",
"...++++........@@@@@@@@@@@@@@@@@@@@@@@@@@@...............++++...",
"...++++........@@@@@@@@@@@@@@@@@@@@@@@@@@@...............++++...",
"...++++........@@@@@@@@@@@@@@@@@@@@@@@@@@@...............++++...",
"...++++..................................................++++...",
"...++++..................................................++++...",
"...++++..................................................++++...",
"...++++..................................................++++...",
"...++++++++++++++++++++++++++++++++++++++++++++++++++++++++++...",
"...++++++++++++++++++++++++++++++++++++++++++++++++++++++++++...",
"...++++++++++++++++++++++++++++++++++++++++++++++++++++++++++...",
"...++++++++++++++++++++++++++++++++++++++++++++++++++++++++++...",
"...++++++++++++++++++++++++++++++++++++++++++++++++++++++++++...",
"................................................................",
"................................................................",
"................................................................",
"................................................................",
"................................................................",
"................................................................",
"................................................................",
"................................................................",
"................................................................",
"................................................................"};
