/* XPM */
static char * SquareOuterRoundInner_xpm[] = {
"48 48 9 1",
" 	c None",
".	c #00FF00",
"+	c #FFFFFF",
"@	c #FFE2E2",
"#	c #FF7777",
"$	c #FF2C2C",
"%	c #FF0505",
"&	c #FF9B9B",
"*	c #FF0000",
"................................................",
"................................................",
"................................................",
"................................................",
"................................................",
".....++++++++++++++++++++++++++++++++++++++.....",
".....++++++++++++++++++++++++++++++++++++++.....",
".....++++++++++++++++++++++++++++++++++++++.....",
".....++++++++++++++++++++++++++++++++++++++.....",
".....++++++++++++++++++++++++++++++++++++++.....",
".....++++++++++++++++++++++++++++++++++++++.....",
".....++++++++++++++++++++++++++++++++++++++.....",
".....++++++++++++++++++++++++++++++++++++++.....",
".....++++++++++++++++++++++++++++++++++++++.....",
".....++++++++++++++++++++++++++++++++++++++.....",
".....++++++++++++++++++++++++++++++++++++++.....",
".....++++++++++++++++++++++++++++++++++++++.....",
".....+++++++++++++++@#$%%$#@+++++++++++++++.....",
".....++++++++++++++&%******%&++++++++++++++.....",
".....+++++++++++++&**********&+++++++++++++.....",
".....++++++++++++@%**********%@++++++++++++.....",
".....++++++++++++#************#++++++++++++.....",
".....++++++++++++$************$++++++++++++.....",
".....++++++++++++%************%++++++++++++.....",
".....++++++++++++%************%++++++++++++.....",
".....++++++++++++$************$++++++++++++.....",
".....++++++++++++#************#++++++++++++.....",
".....++++++++++++@%**********%@++++++++++++.....",
".....+++++++++++++&**********&+++++++++++++.....",
".....++++++++++++++&%******%&++++++++++++++.....",
".....+++++++++++++++@#$%%$#@+++++++++++++++.....",
".....++++++++++++++++++++++++++++++++++++++.....",
".....++++++++++++++++++++++++++++++++++++++.....",
".....++++++++++++++++++++++++++++++++++++++.....",
".....++++++++++++++++++++++++++++++++++++++.....",
".....++++++++++++++++++++++++++++++++++++++.....",
".....++++++++++++++++++++++++++++++++++++++.....",
".....++++++++++++++++++++++++++++++++++++++.....",
".....++++++++++++++++++++++++++++++++++++++.....",
".....++++++++++++++++++++++++++++++++++++++.....",
".....++++++++++++++++++++++++++++++++++++++.....",
".....++++++++++++++++++++++++++++++++++++++.....",
".....++++++++++++++++++++++++++++++++++++++.....",
"................................................",
"................................................",
"................................................",
"................................................",
"................................................"};
