/* XPM */
static char * SquareCoax_xpm[] = {
"48 48 10 1",
" 	c None",
".	c #00FF00",
"+	c #FFFFFF",
"@	c #FFD9D9",
"#	c #FF7D7D",
"$	c #FF3838",
"%	c #FF0F0F",
"&	c #FF0000",
"*	c #FF6F6F",
"=	c #FFE6E6",
"................................................",
"................................................",
"................................................",
"...++++++++++++++++++++++++++++++++++++++++++...",
"...++++++++++++++++++++++++++++++++++++++++++...",
"...++++++++++++++++++++++++++++++++++++++++++...",
"...++++++++++++++++++++++++++++++++++++++++++...",
"...++++++++++++++++++++++++++++++++++++++++++...",
"...++++++++++++++++++++++++++++++++++++++++++...",
"...++++++++++++++++++++++++++++++++++++++++++...",
"...++++++++++++++++++++++++++++++++++++++++++...",
"...++++++++++++++++++++++++++++++++++++++++++...",
"...++++++++++++++++++++++++++++++++++++++++++...",
"...++++++++++++++++++++++++++++++++++++++++++...",
"...++++++++++++++++++++++++++++++++++++++++++...",
"...++++++++++++++++@#$%&%$#@+++++++++++++++++...",
"...+++++++++++++++*&&&&&&&&&*++++++++++++++++...",
"...+++++++++++++=$&&&&&&&&&&&$=++++++++++++++...",
"...+++++++++++++$&&&&&&&&&&&&&$++++++++++++++...",
"...++++++++++++*&&&&&&&&&&&&&&&*+++++++++++++...",
"...+++++++++++@&&&&&&&&&&&&&&&&&@++++++++++++...",
"...+++++++++++#&&&&&&&&&&&&&&&&&#++++++++++++...",
"...+++++++++++$&&&&&&&&&&&&&&&&&$++++++++++++...",
"...+++++++++++%&&&&&&&&&&&&&&&&&%++++++++++++...",
"...+++++++++++&&&&&&&&&&&&&&&&&&&++++++++++++...",
"...+++++++++++%&&&&&&&&&&&&&&&&&%++++++++++++...",
"...+++++++++++$&&&&&&&&&&&&&&&&&$++++++++++++...",
"...+++++++++++#&&&&&&&&&&&&&&&&&#++++++++++++...",
"...+++++++++++@&&&&&&&&&&&&&&&&&@++++++++++++...",
"...++++++++++++*&&&&&&&&&&&&&&&*+++++++++++++...",
"...+++++++++++++$&&&&&&&&&&&&&$++++++++++++++...",
"...+++++++++++++=$&&&&&&&&&&&$=++++++++++++++...",
"...+++++++++++++++*&&&&&&&&&*++++++++++++++++...",
"...++++++++++++++++@#$%&%$#@+++++++++++++++++...",
"...++++++++++++++++++++++++++++++++++++++++++...",
"...++++++++++++++++++++++++++++++++++++++++++...",
"...++++++++++++++++++++++++++++++++++++++++++...",
"...++++++++++++++++++++++++++++++++++++++++++...",
"...++++++++++++++++++++++++++++++++++++++++++...",
"...++++++++++++++++++++++++++++++++++++++++++...",
"...++++++++++++++++++++++++++++++++++++++++++...",
"...++++++++++++++++++++++++++++++++++++++++++...",
"...++++++++++++++++++++++++++++++++++++++++++...",
"...++++++++++++++++++++++++++++++++++++++++++...",
"...++++++++++++++++++++++++++++++++++++++++++...",
"................................................",
"................................................",
"................................................"};
