/* XPM */
static char * very_odd_xpm[] = {
"32 32 33 1",
" 	c None",
".	c #00FF00",
"+	c #40FF40",
"@	c #10FF10",
"#	c #AFFFAF",
"$	c #FFFFFF",
"%	c #DFFFDF",
"&	c #50FF50",
"*	c #80FF80",
"=	c #60FF60",
"-	c #70FF70",
";	c #BFFFBF",
">	c #30FF30",
",	c #20FF20",
"'	c #CFFFCF",
")	c #8FFF8F",
"!	c #EFFFEF",
"~	c #FFAFAF",
"{	c #FF6060",
"]	c #FFDFDF",
"^	c #FFEFEF",
"/	c #FF8080",
"(	c #FF0000",
"_	c #FF1010",
":	c #FF9F9F",
"<	c #9FFF9F",
"[	c #FF4040",
"}	c #FFBFBF",
"|	c #FF2020",
"1	c #FFCFCF",
"2	c #FF3030",
"3	c #FF7070",
"4	c #FF5050",
"................................",
"...............++@..............",
"..............#$$%@.......&**=..",
".............+$$$$*.....@#$$$$#.",
".......-;;;*>*$$$$;=,..,%$$$$$$+",
"......&$$$$$$$$$$$$$$#+'$$$$$$$+",
"......;$$$$$$$$$$$$$$$$$$$$$$$$@",
".....@$$$$$$$$$$$$$$$$$$$$$$$$*.",
".....)$$$$$$$$$$$$$$$$$$$$$$$;..",
"....>$$$$$$$$$$$$$$$$$$$$$$$$>..",
"....#$$$$$$$$$$$$$$$$$$$$$$!+...",
"....$$$$$$$$$$$$$~{]$$$$$$$%....",
"...&$$$$$$$^/$$$$](_:$$$$$$$+...",
"...<$$$$$$$[($$$$$(((}$$$$$$)...",
"..>$$$$$$$:(($$$$^(((|$$$$$$'...",
"..+$$$$$$$[((^$$$~((((}$$$$$$-..",
"..*$$$$$$$((([^$1|(((2:$$$$$$%@.",
"..*$$$$$$$((((((((((3$$$$$$$$$=.",
"..*$$$$$$$|((((((((($$$$$$$$$$<.",
"..*$$$$$$$:/2((((((($$$$$$$$$$;.",
"..&$$$$$$$$$$14[((_~$$$$$$$$$$;.",
"...$$$$$$$$$$$$$1/^$$$$$$$$$$$!.",
"...!$$$$$$$$$$$$$$$$$$$$$$$$$$$.",
"...#$$$$$$$$$$$$$$$$$$$$$$$$$$%.",
"...-$$$$$$$$$$$$$$$$$$$$$$$$$$).",
"....%$$$$$$$$$$$$$$$$$$$$$$$$%@.",
"....-$$$$$$$$$$$$$$$$$$$$$$$$+..",
".....&$$$$$$$$$$$$$$$$$$$$$$)...",
"......>)!$$$$$$$$$$$$$$$$$$!,...",
"........,-#$$$$$$$$$$$$$$$%+....",
"............+*'$$$$$$#=+++@.....",
"................,+++>..........."};
